<?xml version="1.0" encoding="UTF-8" standalone="no"?>
<!-- Created with Inkscape (http://www.inkscape.org/) -->

<svg
   width="46.320629mm"
   height="75.308548mm"
   viewBox="0 0 46.320629 75.308548"
   version="1.1"
   id="svg5"
   inkscape:version="1.1 (c68e22c387, 2021-05-23)"
   sodipodi:docname="vercel.svg"
   xmlns:inkscape="http://www.inkscape.org/namespaces/inkscape"
   xmlns:sodipodi="http://sodipodi.sourceforge.net/DTD/sodipodi-0.dtd"
   xmlns="http://www.w3.org/2000/svg"
   xmlns:svg="http://www.w3.org/2000/svg">
  <sodipodi:namedview
     id="namedview7"
     pagecolor="#ffffff"
     bordercolor="#666666"
     borderopacity="1.0"
     inkscape:pageshadow="2"
     inkscape:pageopacity="0.0"
     inkscape:pagecheckerboard="0"
     inkscape:document-units="mm"
     showgrid="false"
     fit-margin-top="0"
     fit-margin-left="0"
     fit-margin-right="0"
     fit-margin-bottom="0"
     inkscape:zoom="2.5509925"
     inkscape:cx="91.925007"
     inkscape:cy="138.18151"
     inkscape:window-width="1920"
     inkscape:window-height="1001"
     inkscape:window-x="-9"
     inkscape:window-y="-9"
     inkscape:window-maximized="1"
     inkscape:current-layer="layer1" />
  <defs
     id="defs2" />
  <g
     inkscape:label="Layer 1"
     inkscape:groupmode="layer"
     id="layer1"
     transform="translate(-48.889323,-97.00926)">
    <path
       style="fill:#000000;stroke-width:0.264583"
       d="m 61.567843,171.89086 c -3.720799,-0.67344 -6.29095,-1.97217 -6.858863,-3.4659 -0.137684,-0.36213 -0.453328,-0.61877 -0.761047,-0.61877 -4.658401,0 -7.020923,-4.96246 -3.025594,-6.35524 0.704063,-0.24544 0.872562,-0.50197 1.264331,-1.9249 1.55452,-5.64614 5.896418,-14.28141 9.887002,-19.66352 1.306466,-1.76203 1.528648,-2.21373 1.339878,-2.72403 -0.344261,-0.93062 0.189495,-2.46362 1.214756,-3.48888 0.982607,-0.9826 1.64358,-2.34656 1.259266,-2.59856 -1.001827,-0.65692 -1.032527,-2.05508 -0.04986,-2.27091 0.65177,-0.14315 0.79375,-0.30704 0.79375,-0.9162 0,-1.11957 -0.958135,-1.26359 -1.980527,-0.2977 -2.763897,2.61117 -5.950545,1.13475 -3.866833,-1.79156 0.305632,-0.42922 0.555694,-1.14897 0.555694,-1.59945 0,-0.89607 0.06655,-0.94365 0.783361,-0.56002 0.337511,0.18062 0.563253,0.16061 0.745885,-0.0661 0.30311,-0.37634 -0.04448,-1.5158 -0.462387,-1.5158 -0.583531,0 -1.331337,-1.08066 -1.327391,-1.91822 0.0053,-1.12191 0.2899,-1.56735 0.796682,-1.24686 1.485157,0.93921 1.842532,-0.46875 0.509826,-2.00857 -0.589354,-0.68094 -1.138917,-1.5749 -1.221251,-1.98657 -0.110472,-0.55236 -0.346521,-0.79172 -0.900829,-0.91347 -1.051946,-0.23105 -2.098163,-1.12034 -2.527833,-2.14869 -0.494508,-1.18352 -0.478681,-1.22175 0.423743,-1.02355 l 0.788557,0.1732 -0.407182,-0.97452 c -0.426688,-1.02121 -0.322685,-1.49883 0.210312,-0.96584 0.534851,0.53486 1.063,0.39414 0.745733,-0.19868 -0.618736,-1.15612 -0.112718,-3.14216 0.968658,-3.80183 0.252344,-0.15394 0.275254,-0.34933 0.08306,-0.70844 -0.145961,-0.27273 -0.190984,-0.68975 -0.100051,-0.92672 0.0932,-0.24288 -0.149518,-1.00934 -0.556351,-1.75682 -0.875372,-1.60835 -0.780434,-1.757308 0.653704,-1.02567 0.610287,0.31135 1.138662,0.52802 1.174168,0.48148 0.03551,-0.0465 0.218036,-0.65015 0.405621,-1.341371 0.401529,-1.479571 0.220055,-1.426231 1.920584,-0.564508 1.336004,0.677004 1.375175,0.681125 1.777142,0.186942 2.313864,-2.844693 2.645017,-2.983098 2.655933,-1.110039 0.0022,0.382364 0.174992,0.837075 0.383919,1.010469 0.208928,0.173395 0.456513,0.664223 0.55019,1.090727 0.10844,0.49373 0.336908,0.77547 0.628832,0.77547 0.252182,0 1.515212,0.35719 2.806735,0.79375 2.443547,0.82597 3.434144,0.95641 4.09406,0.53908 0.465092,-0.29412 0.790726,0.10737 0.796681,0.98228 0.0048,0.70839 0.208122,0.74054 1.032307,0.16326 1.074893,-0.75288 1.480002,0.83475 0.693382,2.7174 -0.365691,0.87522 -0.356549,0.99948 0.123079,1.67305 0.284959,0.40019 0.657363,1.31038 0.827561,2.02263 0.696966,2.9167 1.588953,3.67467 2.431661,2.0663 l 0.358339,-0.68391 0.831739,0.69986 c 1.034573,0.87054 1.324885,2.13914 0.745797,3.25897 -0.403122,0.77955 -0.392322,0.82785 0.366773,1.64046 0.917308,0.98198 1.321141,2.24911 1.323186,4.15183 0.0027,2.49099 0.889747,3.44402 2.146785,2.30641 0.553894,-0.50126 0.966917,-0.30593 1.320707,0.62461 l 0.258376,0.67958 0.982075,-0.95428 c 1.669206,-1.62197 2.407703,-1.88094 3.175199,-1.11344 l 0.640347,0.64035 -0.563515,1.16406 c -0.309936,0.64024 -0.795195,1.37374 -1.078357,1.63 -0.507815,0.45956 -0.505748,0.47307 0.151366,0.98996 1.171831,0.92176 0.699277,1.13181 -2.329276,1.03536 l -2.795365,-0.089 -0.181298,1.0731 c -0.217553,1.28769 -0.05205,1.62168 0.80359,1.62168 0.84323,0 0.814848,0.26825 -0.123497,1.16724 -0.739584,0.70857 -0.754933,0.77155 -0.396875,1.62851 0.431239,1.03209 0.477565,2.18504 0.12505,3.11222 -0.197895,0.5205 -0.01087,1.23985 0.934445,3.59414 2.186048,5.44431 3.54806,12.17031 3.632922,17.94042 l 0.04567,3.10536 1.058333,0.81074 c 2.351185,1.80112 -0.08584,5.41846 -3.650448,5.41846 -0.177816,0 -0.464775,0.22653 -0.637683,0.5034 -0.967073,1.54853 -6.213329,2.81196 -10.793119,2.59926 -2.507697,-0.11646 -3.046555,-0.0657 -3.894275,0.36659 -2.518595,1.28445 -9.153885,1.70951 -13.737049,0.88 z"
       id="path435"
       sodipodi:nodetypes="csssssssssscssccsccssscccscsssscccssscssssscssssscssscsscsscsssccssssssscssssccc" />
  </g>
</svg>
