<?xml version="1.0" encoding="UTF-8" standalone="no"?>
<!-- Created with Inkscape (http://www.inkscape.org/) -->

<svg
   width="35.804035mm"
   height="39.84127mm"
   viewBox="0 0 35.804036 39.84127"
   version="1.1"
   id="svg5"
   inkscape:version="1.1 (c68e22c387, 2021-05-23)"
   sodipodi:docname="present.svg"
   xmlns:inkscape="http://www.inkscape.org/namespaces/inkscape"
   xmlns:sodipodi="http://sodipodi.sourceforge.net/DTD/sodipodi-0.dtd"
   xmlns="http://www.w3.org/2000/svg"
   xmlns:svg="http://www.w3.org/2000/svg">
  <sodipodi:namedview
     id="namedview7"
     pagecolor="#ffffff"
     bordercolor="#666666"
     borderopacity="1.0"
     inkscape:pageshadow="2"
     inkscape:pageopacity="0.0"
     inkscape:pagecheckerboard="0"
     inkscape:document-units="mm"
     showgrid="false"
     inkscape:zoom="2.8284271"
     inkscape:cx="0.17677669"
     inkscape:cy="3.7123106"
     inkscape:window-width="2560"
     inkscape:window-height="1361"
     inkscape:window-x="-9"
     inkscape:window-y="-9"
     inkscape:window-maximized="1"
     inkscape:current-layer="layer1"
     fit-margin-top="0"
     fit-margin-left="0"
     fit-margin-right="0"
     fit-margin-bottom="0" />
  <defs
     id="defs2" />
  <g
     inkscape:label="Layer 1"
     inkscape:groupmode="layer"
     id="layer1"
     transform="translate(-28.383735,-90.041905)">
    <path
       style="fill:#000000;stroke-width:0.0846667"
       d="m 46.031851,129.84725 c -0.08494,-0.0335 -0.159271,-0.0975 -0.165186,-0.14224 -0.01719,-0.13007 -3.598398,-2.57903 -3.771405,-2.57903 -0.05499,0 -0.100898,-0.0286 -0.102022,-0.0635 -0.0011,-0.0349 -0.227305,-0.2159 -0.502623,-0.40217 -0.275318,-0.18626 -0.518767,-0.40643 -0.540998,-0.48926 -0.02223,-0.0828 -0.07301,-0.13998 -0.112845,-0.127 -0.03983,0.013 -0.1646,-0.0621 -0.277256,-0.1669 -0.112656,-0.10478 -0.306212,-0.1905 -0.430124,-0.1905 -0.123912,0 -0.392953,-0.11703 -0.597869,-0.26005 -0.204915,-0.14303 -0.696424,-0.47474 -1.09224,-0.73713 -0.395817,-0.2624 -0.761129,-0.51749 -0.811806,-0.56688 -0.05068,-0.0494 -0.308895,-0.23908 -0.57382,-0.42154 -0.274721,-0.18921 -0.502897,-0.41628 -0.531058,-0.52848 -0.02853,-0.11367 -0.134793,-0.21817 -0.25168,-0.24751 -0.111267,-0.0279 -0.202303,-0.087 -0.202303,-0.13126 0,-0.0443 -0.03358,-0.0597 -0.07463,-0.0344 -0.04105,0.0254 -0.202971,-0.0416 -0.359833,-0.14886 -0.939723,-0.64244 -3.226487,-2.24571 -3.624849,-2.54141 -0.258695,-0.19202 -0.493828,-0.34185 -0.522518,-0.33294 -0.02869,0.009 -0.07726,-0.31548 -0.107926,-0.72086 -0.09247,-1.22227 -0.139721,-1.45658 -0.294024,-1.45802 -0.115611,-0.001 -0.118481,-0.014 -0.01733,-0.078 0.141225,-0.0894 -0.174714,-4.34119 -0.326335,-4.39173 -0.04494,-0.015 -0.06072,-0.0819 -0.03507,-0.14877 0.02934,-0.0765 -0.0072,-0.12153 -0.09848,-0.12153 -0.09754,0 -0.128269,-0.0439 -0.09372,-0.13392 0.02826,-0.0737 0.05407,-0.15939 0.05734,-0.1905 0.0033,-0.0311 0.04183,0.0196 0.08569,0.11275 0.05365,0.11394 0.06216,-0.0107 0.026,-0.381 -0.02955,-0.30268 -0.05389,-0.60748 -0.05409,-0.67733 -1.95e-4,-0.0699 -0.03447,-0.4699 -0.07615,-0.889 -0.04168,-0.4191 -0.09479,-0.9906 -0.118009,-1.27 -0.07648,-0.92023 -0.138697,-1.26917 -0.237526,-1.3322 -0.07113,-0.0454 -0.06888,-0.0626 0.0083,-0.0635 0.10421,-0.001 0.149208,-0.26837 0.06021,-0.35737 -0.02509,-0.0251 -0.05983,-0.34144 -0.07718,-0.70299 -0.01865,-0.38843 -0.07317,-0.68309 -0.133286,-0.72024 -0.06987,-0.0432 -0.0727,-0.0727 -0.0091,-0.0943 0.132659,-0.045 -0.02197,-1.34369 -0.171252,-1.43829 -0.09162,-0.0581 -0.0922,-0.0725 -0.003,-0.0735 0.151827,-0.002 0.09737,-0.61038 -0.05923,-0.6619 -0.06638,-0.0218 -0.09387,-2.6e-4 -0.0631,0.0495 0.06401,0.10357 -0.164706,0.0853 -0.261334,-0.0209 -0.03627,-0.0399 -0.01833,-0.0451 0.03988,-0.0116 0.05821,0.0335 0.105834,0.0235 0.105834,-0.0222 0,-0.0457 -0.135713,-0.12788 -0.301585,-0.18263 -0.359326,-0.11858 -0.418612,-0.25169 -0.498879,-1.1201 -0.0376,-0.40682 -0.09812,-0.65666 -0.15926,-0.65746 -0.07015,-9.2e-4 -0.07171,-0.0192 -0.0054,-0.0635 0.06584,-0.044 0.07006,-0.24857 0.01438,-0.6972 -0.04335,-0.34925 -0.07749,-0.71012 -0.07587,-0.80192 0.0016,-0.0918 -0.062,-0.24355 -0.141375,-0.33721 -0.105321,-0.124274 -0.108959,-0.143165 -0.01346,-0.0699 0.116697,0.0895 0.12376,0.0252 0.06528,-0.594129 -0.03607,-0.381975 -0.0759,-0.8469 -0.08852,-1.033167 l -0.02294,-0.338667 0.889,-0.218464 c 0.48895,-0.120156 0.838778,-0.235322 0.777394,-0.255924 -0.06138,-0.0206 0.03387,-0.03834 0.211667,-0.03942 0.454605,-0.0028 1.80839,-0.301112 1.755392,-0.386864 -0.02415,-0.03908 0.01388,-0.04888 0.08452,-0.02177 0.178461,0.06848 1.425822,-0.224682 1.540698,-0.362106 0.0517,-0.06185 0.14695,-0.111867 0.211666,-0.111154 0.09465,0.001 0.09282,0.01861 -0.0093,0.0898 -0.09652,0.06727 -0.06604,0.07788 0.127,0.04424 0.1397,-0.02435 0.42545,-0.06765 0.635,-0.09624 l 0.381,-0.05198 v -0.655032 c 0,-0.642778 0.0084,-0.668767 0.450282,-1.38929 0.247655,-0.403843 0.425798,-0.773875 0.395874,-0.822294 -0.02992,-0.04842 -0.023,-0.07758 0.01539,-0.0648 0.03839,0.01278 0.232592,-0.153413 0.431569,-0.369312 0.539532,-0.585417 1.060887,-0.786154 2.051224,-0.78978 1.03069,-0.0038 1.191934,0.07546 2.809353,1.380428 l 1.24302,1.002898 0.462795,-0.08389 0.462797,-0.08388 -0.04505,-0.817483 c -0.06151,-1.116223 0.03948,-2.290018 0.197015,-2.290018 0.0888,0 0.119638,-0.124751 0.120331,-0.486834 5.08e-4,-0.267758 0.02455,-0.629708 0.05341,-0.804333 l 0.05248,-0.3175 h 2.902021 2.90202 l 0.05975,0.796947 c 0.05108,0.681349 0.08293,0.803009 0.219569,0.83874 0.149669,0.03914 0.159818,0.145359 0.159818,1.672498 0,0.896887 0.02162,1.609085 0.04804,1.582661 0.02642,-0.02642 0.180997,-0.01133 0.343495,0.03354 0.291486,0.08048 0.313292,0.06714 1.624124,-0.993976 1.971704,-1.596088 2.926627,-1.845632 4.334338,-1.132664 0.917983,0.464933 2.005562,2.353656 1.926006,3.344758 l -0.04254,0.530001 0.243602,0.03575 c 0.133981,0.01966 0.243601,0.0043 0.243601,-0.03425 0,-0.0385 0.04035,-0.07 0.08966,-0.07 0.04931,0 0.06647,0.03753 0.03812,0.08339 -0.03169,0.05127 0.05606,0.06696 0.227837,0.04071 0.183963,-0.0281 0.226389,-0.01922 0.124229,0.026 -0.107759,0.0477 0.293078,0.165876 1.312333,0.386911 0.807114,0.17503 1.56273,0.338948 1.679147,0.364261 0.116416,0.02531 0.364066,0.07586 0.550333,0.112317 0.52684,0.103125 1.375884,0.318029 1.458711,0.369219 0.06712,0.04148 0.02976,0.728832 -0.09971,1.834521 l -0.12965,1.312331 c -0.04488,0.4191 -0.102608,0.9525 -0.128292,1.18534 l -0.02643,0.70764 c 0.02147,0.14631 0.0075,0.26602 -0.03096,0.26602 -0.0385,0 -0.07,0.0404 -0.07,0.0897 0,0.0493 0.03411,0.0686 0.07579,0.0428 0.04169,-0.0258 0.0984,0.0121 0.12603,0.0841 l -0.74193,0.25521 c -0.376522,0.17238 -0.473489,0.25635 -0.464367,0.40216 l -0.04535,0.50909 -0.03816,0.6213 c -0.007,0.1941 -0.03686,0.4227 -0.06641,0.508 -0.05105,0.14738 -0.0479,0.14764 0.0635,0.005 0.103008,-0.13168 0.112716,-0.0957 0.08006,0.29633 -0.03491,0.41911 -0.04033,0.42821 -0.08925,0.14985 -0.0446,-0.25378 -0.06185,-0.20748 -0.120095,0.32252 -0.03741,0.34037 -0.04487,0.64199 -0.01658,0.67028 0.02829,0.0283 0.05143,-0.11367 0.05143,-0.31546 0,-0.20179 0.02523,-0.34166 0.05607,-0.31082 0.10272,0.10272 0.03533,0.65486 -0.09596,0.78614 -0.07516,0.0752 -0.124405,0.26004 -0.117428,0.4409 l 0.01201,0.31145 0.05418,-0.33867 0.05418,-0.33867 0.04664,0.27855 c 0.03329,0.19882 0.0022,0.32975 -0.10853,0.45746 -0.10758,0.12404 -0.151266,0.29827 -0.14245,0.56812 l 0.01272,0.38921 0.05923,-0.381 c 0.05317,-0.34203 0.05968,-0.35069 0.06358,-0.0847 0.0024,0.16298 -0.02462,0.50588 -0.06003,0.762 l -0.06437,0.46567 -0.01192,-0.37395 c -0.01713,-0.53726 -0.06597,-0.40179 -0.119576,0.33161 -0.02742,0.37522 -0.01733,0.56573 0.02467,0.46567 0.05286,-0.12592 0.07261,-0.0669 0.07703,0.23018 0.0044,0.29326 -0.02311,0.38835 -0.103338,0.35757 -0.08461,-0.0325 -0.152978,0.45093 -0.302742,2.14049 -0.106399,1.20034 -0.245365,2.64451 -0.308813,3.20929 -0.06345,0.56477 -0.09488,1.10517 -0.06985,1.2009 0.02503,0.0957 0.0047,0.30039 -0.04518,0.45481 -0.04988,0.15442 -0.101292,0.59503 -0.114246,0.97914 -0.01295,0.38411 -0.05044,0.69844 -0.08329,0.6985 -0.110336,2.6e-4 -1.041135,0.69085 -1.023121,0.75913 0.0098,0.0371 -0.06575,0.13871 -0.167874,0.22574 -0.156796,0.13364 -0.167832,0.1352 -0.07094,0.0101 0.167778,-0.21666 -0.01523,-0.18095 -0.266607,0.052 -0.324332,0.30058 -0.739712,0.58253 -0.742627,0.50407 -0.0014,-0.0381 -0.04186,-0.002 -0.08987,0.0807 -0.04801,0.0825 -0.119061,0.13031 -0.157887,0.10632 -0.03882,-0.024 -0.09336,0.0157 -0.121198,0.0882 -0.02783,0.0725 -0.08498,0.11063 -0.127,0.0847 -0.04202,-0.026 -0.09917,0.0121 -0.127,0.0847 -0.02783,0.0725 -0.08924,0.108 -0.13647,0.0788 -0.04722,-0.0292 -0.108636,0.006 -0.13647,0.0788 -0.02783,0.0725 -0.08498,0.11063 -0.127,0.0847 -0.04202,-0.026 -0.09925,0.0123 -0.127186,0.0851 -0.02794,0.0728 -0.103867,0.13237 -0.168736,0.13237 -0.06487,0 -0.117941,0.0381 -0.117941,0.0847 0,0.0466 -0.04252,0.0847 -0.09449,0.0847 -0.109352,0 -0.948489,0.59568 -0.995208,0.70647 -0.07398,0.17544 -0.505296,0.4947 -2.305533,1.70653 -0.48424,0.32597 -0.930782,0.64029 -0.992317,0.6985 -0.06153,0.0582 -0.186176,0.10583 -0.276982,0.10583 -0.188906,0 -0.838804,0.40618 -0.838804,0.52425 0,0.0431 -0.03837,0.0547 -0.08526,0.0257 -0.0469,-0.029 -0.108038,0.007 -0.135872,0.0792 -0.02783,0.0725 -0.0828,0.11198 -0.122154,0.0877 -0.03935,-0.0243 -0.11347,0.0341 -0.16471,0.12986 -0.05124,0.0957 -0.125359,0.15418 -0.164709,0.12986 -0.03935,-0.0243 -0.09432,0.0151 -0.122154,0.0877 -0.02783,0.0725 -0.08898,0.10816 -0.135872,0.0792 -0.04689,-0.029 -0.08526,-0.0123 -0.08526,0.037 0,0.0493 -0.05307,0.0897 -0.117941,0.0897 -0.06487,0 -0.141965,0.0626 -0.171326,0.13912 -0.02936,0.0765 -0.07765,0.11486 -0.107298,0.0852 -0.02965,-0.0297 -0.107562,0.0227 -0.173134,0.11629 -0.06557,0.0936 -0.150721,0.15075 -0.189222,0.12695 -0.0385,-0.0238 -0.09277,0.0161 -0.120609,0.0886 -0.02783,0.0725 -0.08498,0.11063 -0.127,0.0847 -0.04202,-0.026 -0.09837,0.01 -0.125222,0.08 -0.02686,0.07 -0.154673,0.17294 -0.284039,0.22878 -0.129364,0.0558 -0.897771,0.55406 -1.70757,1.10715 -1.613128,1.10174 -1.592921,1.09057 -1.814737,1.00312 z m 10.90217,-34.169382 c 0.400681,-0.642946 0.414557,-1.317168 0.03088,-1.500134 -1.257601,-0.599707 -2.408682,-0.389451 -3.772317,0.689053 l -0.694324,0.549143 1.924013,0.432925 c 2.172689,0.48888 2.09733,0.49401 2.511753,-0.170987 z m -18.362227,0.08552 c 0.928302,-0.206026 1.77397,-0.387001 1.879262,-0.402167 0.240799,-0.03468 -0.92182,-0.984479 -1.563737,-1.277486 -0.771494,-0.352153 -2.784,-0.133343 -2.958607,0.321675 -0.156066,0.406701 0.457761,1.73257 0.802113,1.73257 0.08423,0 0.912667,-0.168566 1.840969,-0.374592 z"
       id="path1377"
       sodipodi:nodetypes="csscssccscsssscsccscccccssccsccsccccccccccccsscsscccscsccsscccscccscsccsscscccsscccccsssscssscsssscssscsccccssscccccscsssssscscccscscscccsssccsssssccccccccsccsccssssssssssccccccssscssscsccccscscsssscssss" />
  </g>
</svg>
