<?xml version="1.0" encoding="UTF-8" standalone="no"?>
<!-- Created with Inkscape (http://www.inkscape.org/) -->

<svg
   width="58.671005mm"
   height="200.81097mm"
   viewBox="0 0 58.671005 200.81097"
   version="1.1"
   id="svg5"
   inkscape:version="1.1 (c68e22c387, 2021-05-23)"
   sodipodi:docname="hyde.svg"
   xmlns:inkscape="http://www.inkscape.org/namespaces/inkscape"
   xmlns:sodipodi="http://sodipodi.sourceforge.net/DTD/sodipodi-0.dtd"
   xmlns="http://www.w3.org/2000/svg"
   xmlns:svg="http://www.w3.org/2000/svg">
  <sodipodi:namedview
     id="namedview7"
     pagecolor="#ffffff"
     bordercolor="#666666"
     borderopacity="1.0"
     inkscape:pageshadow="2"
     inkscape:pageopacity="0.0"
     inkscape:pagecheckerboard="0"
     inkscape:document-units="mm"
     showgrid="false"
     fit-margin-top="0"
     fit-margin-left="0"
     fit-margin-right="0"
     fit-margin-bottom="0"
     inkscape:zoom="0.72555402"
     inkscape:cx="-61.332442"
     inkscape:cy="305.28395"
     inkscape:window-width="1920"
     inkscape:window-height="1001"
     inkscape:window-x="-9"
     inkscape:window-y="-9"
     inkscape:window-maximized="1"
     inkscape:current-layer="layer1" />
  <defs
     id="defs2" />
  <g
     inkscape:label="Layer 1"
     inkscape:groupmode="layer"
     id="layer1"
     transform="translate(-81.345074,-29.073545)">
    <path
       style="fill:#000000;stroke-width:0.264583"
       d="m 83.578075,229.3228 c -2.101969,-1.27871 -2.632401,-6.77268 -1.043016,-10.80307 0.222274,-0.56364 0.17972,-0.76572 -0.236255,-1.12189 -0.461047,-0.39476 -0.510443,-0.85127 -0.541127,-5.00106 -0.01857,-2.51167 -0.07345,-4.86431 -0.121963,-5.22812 -0.302897,-2.27169 -0.400296,-11.22372 -0.141057,-12.96458 0.162527,-1.09141 0.415721,-2.81781 0.562655,-3.83646 0.281965,-1.95478 1.1141,-5.8174 2.403454,-11.15641 0.671077,-2.77881 2.056515,-6.63722 3.288219,-9.15759 0.467464,-0.95654 1.093086,-3.18624 1.315705,-4.68912 0.097,-0.65485 0.463284,-2.79797 0.813962,-4.7625 0.627334,-3.51439 1.514927,-10.93312 1.836008,-15.34584 0.09,-1.23693 0.349204,-3.38005 0.576004,-4.7625 0.5933,-3.61643 0.610389,-3.47082 -0.450621,-3.83975 -1.221631,-0.42478 -5.223277,-3.23949 -5.895904,-4.14711 l -0.526781,-0.71081 0.996057,-3.33074 c 0.547831,-1.83191 1.356965,-4.25048 1.798076,-5.3746 0.441111,-1.12413 0.832025,-2.34152 0.868697,-2.70532 0.03667,-0.36381 0.364507,-2.20927 0.728519,-4.10105 0.364013,-1.89177 0.738123,-4.33032 0.831355,-5.419 0.09323,-1.08869 0.353909,-2.33884 0.57928,-2.77813 0.583674,-1.13767 2.213768,-6.08446 2.213768,-6.71804 0,-0.29245 0.105324,-0.59682 0.234054,-0.67638 0.723296,-0.44702 0.329533,-4.658256 -0.417019,-4.459956 -0.11765,0.0312 -1.100167,0.37081 -2.18337,0.75457 -3.079743,1.0911 -5.299963,0.8853 -6.631046,-0.61464 -1.434791,-1.61681 -1.560407,-2.66113 -1.312581,-10.91238 0.203096,-6.76195 0.371478,-8.576353 1.166321,-12.567704 0.202855,-1.018646 0.567172,-2.923646 0.809595,-4.233334 0.242423,-1.309687 0.538841,-2.619375 0.658706,-2.910417 0.119866,-0.291041 0.367637,-1.124479 0.550603,-1.852083 0.709516,-2.821541 2.584587,-4.557866 5.332845,-4.938242 1.97913,-0.273923 5.647125,-1.532845 6.818975,-2.340396 0.363802,-0.250705 1.327248,-0.779507 2.140987,-1.175112 0.81375,-0.395606 1.88531,-1.066088 2.38125,-1.489959 0.49595,-0.423871 1.12333,-0.770954 1.39419,-0.771296 0.7243,-9.26e-4 0.384,-1.440617 -1.03497,-4.378721 -3.06838,-6.353353 -2.5028,-13.947353 1.27813,-17.161383 0.61405,-0.521981 1.32481,-1.127885 1.57948,-1.346453 0.25466,-0.218569 0.46302,-0.349305 0.46302,-0.290526 0,0.05878 0.59659,-0.119814 1.32575,-0.396875 1.69283,-0.643227 7.43937,-0.729324 8.59688,-0.128803 3.35619,1.741214 6.95943,8.626049 5.72331,10.93575 -0.16616,0.310481 -0.16116,0.645039 0.0143,0.958617 0.18686,0.333899 0.17998,0.571279 -0.0224,0.773689 -0.16059,0.1606 -0.29199,0.555288 -0.29199,0.877083 0,0.321796 -0.30514,1.875562 -0.67809,3.452813 -0.37295,1.577251 -0.84182,3.722374 -1.04194,4.766938 -0.20884,1.090063 -0.76177,2.636166 -1.29782,3.628978 l -0.93396,1.729769 1.41819,1.464252 c 1.8519,1.912046 1.97494,1.877944 3.39199,-0.940131 0.26251,-0.522044 1.1888,-1.6763 2.05842,-2.565012 0.86962,-0.888711 1.58113,-1.842905 1.58113,-2.12043 0,-0.277526 0.72884,-1.325927 1.61966,-2.32978 0.89081,-1.003853 1.83138,-2.313234 2.09014,-2.909736 0.25877,-0.596502 0.82646,-1.370408 1.26153,-1.719792 0.43507,-0.349384 1.05515,-1.171024 1.37796,-1.825868 1.06697,-2.16445 2.6437,-3.459786 3.01945,-2.480587 0.1553,0.404697 -1.42282,3.603546 -1.93346,3.919142 -0.12361,0.0764 -0.72245,0.944834 -1.33074,1.929861 -0.60829,0.985028 -1.51134,2.386272 -2.00678,3.113876 -2.15236,3.160946 -3.70775,5.487842 -5.55911,8.316519 l -1.97975,3.024851 0.59607,0.645716 c 0.53722,0.581959 3.40243,2.728069 5.58347,4.182137 3.62838,2.418995 4.52209,6.6503 3.34673,15.845359 -0.16741,1.30969 -0.29563,2.55985 -0.28493,2.77813 0.0107,0.21828 0.0215,2.14018 0.0241,4.27089 0.003,2.64322 0.12852,4.28238 0.39459,5.15937 0.49986,1.64763 0.49427,2.45229 -0.0296,4.2542 -0.23389,0.80453 -0.32318,1.537226 -0.19844,1.628226 0.72601,0.52957 1.41743,1.96564 1.41743,2.944 0,0.59411 0.17013,1.93839 0.37807,2.98728 0.20794,1.04889 0.44674,2.38332 0.53066,2.9654 0.0839,0.58209 0.2234,1.53389 0.30997,2.11512 0.0866,0.58122 0.44802,1.82891 0.80324,2.77264 0.35522,0.94373 0.71589,2.37318 0.80148,3.17656 0.0856,0.80338 0.50465,2.59178 0.93122,3.97423 0.86475,2.80252 1.22227,6.05396 0.7011,6.37606 -0.24556,0.15177 -0.21919,0.43598 0.11233,1.21061 1.33228,3.113 2.04483,12.05707 1.1053,13.87392 -1.07798,2.08458 -3.37048,3.93881 -3.72561,3.01337 -0.19485,-0.50778 -0.71091,-0.50278 -1.71532,0.0166 -0.90474,0.46786 -1.55537,0.17066 -1.55537,-0.71047 0,-0.40056 -0.19869,-0.49677 -1.02593,-0.49677 -1.29099,0 -1.69423,-0.4384 -1.35718,-1.47548 0.13826,-0.42542 0.30967,-1.07113 0.38091,-1.43494 0.0797,-0.40713 0.53403,-0.91041 1.18153,-1.30895 1.16384,-0.71633 1.18293,-0.94408 0.0963,-1.14935 -0.40196,-0.0759 -0.97471,-0.21632 -1.27277,-0.31198 -0.54609,-0.17526 -0.98444,2.18463 -1.35007,7.2682 -0.0767,1.06634 -0.7264,5.58635 -1.42617,9.92188 -0.14092,0.87312 -0.55819,3.90922 -0.92726,6.74687 -0.36907,2.83766 -0.90209,6.5286 -1.18447,8.20209 -0.28238,1.67349 -0.68788,4.76911 -0.9011,6.87916 -0.21322,2.11005 -0.59631,4.7025 -0.85131,5.76098 -0.48839,2.02727 -0.50633,1.75494 0.43955,6.67444 0.48041,2.49861 0.0402,10.44835 -0.77986,14.08323 -1.38534,6.14053 2.22477,11.11556 8.75807,12.06932 5.5416,0.80898 8.42542,3.77557 4.56346,4.69443 -7.29177,1.7349 -11.86458,2.04819 -15.05933,1.03174 -1.07221,-0.34113 -2.07504,-0.39159 -5.29167,-0.26625 -2.18281,0.085 -4.80218,0.0615 -5.82083,-0.0523 l -1.85208,-0.20699 -0.0783,-1.78957 c -0.0622,-1.42032 0.006,-1.82196 0.33073,-1.94654 0.66986,-0.25705 0.57834,-4.43188 -0.11651,-5.31524 -0.28906,-0.36748 -0.46531,-0.76564 -0.39166,-0.8848 0.56569,-0.91532 0.81889,-7.01146 0.40601,-9.77531 -0.14131,-0.94589 -0.46383,-4.44532 -0.71671,-7.77652 l -0.4598,-6.05672 0.73013,-7.90039 c 0.40158,-4.34521 0.84192,-8.28718 0.97854,-8.75994 0.35958,-1.24425 0.34323,-3.83456 -0.0335,-5.31308 -0.23049,-0.90451 -0.26429,-2.10421 -0.11554,-4.10105 0.11563,-1.55238 0.19432,-3.89408 0.17485,-5.20376 -0.11728,-7.8884 -0.17102,-9.39271 -0.33553,-9.39271 -1.37867,0 -5.11936,14.18847 -7.63821,28.97187 -0.4463,2.61938 -1.22868,7.02469 -1.73862,9.78959 -0.509941,2.76489 -1.057813,5.74146 -1.217494,6.61458 -0.159681,0.87313 -0.527809,2.36141 -0.818062,3.30729 -0.408527,1.33133 -0.57686,2.94497 -0.745225,7.14375 -0.119621,2.98318 -0.353557,6.13834 -0.519857,7.01146 -0.166301,0.87313 -0.332832,1.94469 -0.37007,2.38125 -0.0602,0.70571 -0.693066,3.61549 -1.179699,5.42396 -0.144897,0.53848 -0.367935,0.67711 -1.19962,0.74562 l -1.02163,0.0842 0.129161,1.80521 c 0.07104,0.99286 0.264994,1.96702 0.431011,2.1648 1.040364,1.23937 2.229548,4.14702 2.257174,5.51896 l 0.0293,1.45521 -5.556249,0.0677 c -5.377617,0.0655 -5.588127,0.0483 -6.547744,-0.53546 z"
       id="path2239" />
  </g>
</svg>
