<?xml version="1.0" encoding="UTF-8" standalone="no"?>
<!-- Created with Inkscape (http://www.inkscape.org/) -->

<svg
   version="1.1"
   id="svg9"
   width="274.31363"
   height="402.94534"
   viewBox="0 0 274.31363 402.94534"
   sodipodi:docname="attack.svg"
   inkscape:version="1.1 (c68e22c387, 2021-05-23)"
   xmlns:inkscape="http://www.inkscape.org/namespaces/inkscape"
   xmlns:sodipodi="http://sodipodi.sourceforge.net/DTD/sodipodi-0.dtd"
   xmlns="http://www.w3.org/2000/svg"
   xmlns:svg="http://www.w3.org/2000/svg">
  <defs
     id="defs13" />
  <sodipodi:namedview
     id="namedview11"
     pagecolor="#ffffff"
     bordercolor="#666666"
     borderopacity="1.0"
     inkscape:pageshadow="2"
     inkscape:pageopacity="0.0"
     inkscape:pagecheckerboard="0"
     showgrid="false"
     fit-margin-top="0"
     fit-margin-left="0"
     fit-margin-right="0"
     fit-margin-bottom="0"
     inkscape:zoom="1.94461"
     inkscape:cx="137.04547"
     inkscape:cy="201.32571"
     inkscape:window-width="1920"
     inkscape:window-height="1001"
     inkscape:window-x="-9"
     inkscape:window-y="-9"
     inkscape:window-maximized="1"
     inkscape:current-layer="g15" />
  <g
     inkscape:groupmode="layer"
     inkscape:label="Image"
     id="g15"
     transform="translate(0.0282756,0.13113371)">
    <path
       style="fill:#000000;stroke-width:0.274286"
       d="m 209.41714,402.26496 c -2.71971,-0.67392 -4.55188,-2.09154 -7.12209,-5.51067 l -1.03092,-1.37143 0.14653,-2.46857 c 0.0806,-1.35772 0.34831,-3.43491 0.59494,-4.61598 0.32616,-1.56195 0.36708,-2.24542 0.15011,-2.50684 -0.16407,-0.1977 -0.47513,-1.20623 -0.69124,-2.24116 -3.29849,-15.7962 -8.693,-28.02224 -16.26078,-36.85317 -4.23328,-4.93985 -5.7625,-5.96555 -5.59382,-3.75192 0.0331,0.43422 -0.12789,1.16642 -0.35772,1.62714 -0.22983,0.46069 -0.42058,1.40495 -0.42389,2.09834 -0.006,1.26334 -0.8525,3.59216 -1.30565,3.59216 -0.13274,0 -0.41271,0.33943 -0.62216,0.75428 -1.33272,2.6397 -2.69197,3.95984 -3.4389,3.33995 -0.22029,-0.18281 -0.47548,-0.25744 -0.5671,-0.16583 -0.2767,0.2767 -1.1916,-0.35084 -1.1916,-0.81734 0,-0.35896 -0.0734,-0.37449 -0.41805,-0.0884 -0.5502,0.45661 -0.77077,0.19491 -0.79575,-0.94417 -0.0113,-0.51365 -0.14391,-0.91373 -0.29477,-0.88907 -0.69263,0.11331 0.0902,-3.49045 1.12593,-5.18326 1.43985,-2.35326 1.90087,-3.26109 2.24753,-4.42574 0.19151,-0.64339 0.68891,-1.42963 1.12786,-1.78285 1.58992,-1.27933 1.46217,-1.53071 -2.23274,-4.3934 -3.96701,-3.07354 -7.87149,-6.69658 -9.52129,-8.83505 -1.43387,-1.85856 -1.41551,-1.85718 -2.18218,-0.16081 -1.7699,3.9162 -5.84741,8.59984 -10.54314,12.11045 -1.90072,1.421 -3.14813,2.02418 -2.87911,1.39217 0.0503,-0.11814 0.80155,-1.59014 1.66947,-3.27116 l 1.57805,-3.05637 -1.61263,1.07688 c -2.90446,1.93953 -2.90609,1.56101 -0.0108,-2.51786 2.55079,-3.59364 2.84808,-4.08527 2.47034,-4.08527 -0.14726,0 -0.34288,0.12156 -0.43471,0.27015 -0.0918,0.14858 -0.99397,0.76177 -2.00476,1.36267 -1.01078,0.60088 -3.01037,2.08296 -4.44351,3.29349 -1.43314,1.21053 -2.95473,2.3562 -3.38131,2.54589 -0.55548,0.24705 -1.0214,0.87039 -1.6417,2.19637 -1.23452,2.63899 -1.71762,2.06686 -1.51604,-1.79539 0.10569,-2.02483 -0.0678,-2.1013 -0.74484,-0.32837 -1.291,3.38043 0.0813,6.93419 3.03246,7.85291 1.99636,0.62144 4.41971,1.91703 4.29038,2.29371 -0.128,0.37281 -4.91569,0.19315 -7.17038,-0.26905 -4.03468,-0.82711 -8.30856,-3.26863 -11.7315,-6.70181 l -1.80089,-1.80628 0.80048,1.45741 c 0.44027,0.80158 1.32506,2.07681 1.9662,2.83381 1.39481,1.64693 1.46152,2.00794 0.32921,1.78146 -2.54289,-0.50855 -8.7091,-5.14414 -11.3619,-8.54156 l -1.9273,-2.46827 0.089,3.42858 c 0.1034,3.98213 0.009,3.99837 -1.59005,0.27428 l -1.11905,-2.60571 0.13677,5.34857 c 0.0752,2.94171 0.21589,5.74971 0.3126,6.24 0.25262,1.28078 -0.30171,1.13134 -1.01739,-0.27429 -0.32644,-0.64114 -1.00671,-1.67081 -1.51172,-2.28814 -1.22743,-1.50046 -2.26426,-3.87928 -3.63525,-8.34043 -1.58999,-5.1738 -2.89738,-8.46015 -4.10964,-10.33037 -1.775628,-2.73934 -1.958938,-2.64098 -1.11833,0.60006 0.8815,3.3987 0.27847,4.01614 -0.930892,0.95317 -0.08935,-0.22629 -0.110449,0.0206 -0.0469,0.54857 0.292846,2.43305 0.366602,4.90607 0.179967,6.03429 l -0.204178,1.23428 -1.686114,-3.29143 -1.686114,-3.29143 -0.01423,1.28937 c -0.01758,1.59467 -0.527515,4.05921 -0.839872,4.05921 -0.127392,0 -0.610044,-1.01829 -1.072561,-2.26286 -2.499826,-6.72667 -4.275025,-8.5934 -10.993218,-11.56005 -0.377142,-0.16654 -1.272,-0.89732 -1.988571,-1.62396 -1.245356,-1.26281 -1.302857,-1.28975 -1.302857,-0.6099 0,1.31893 4.187317,4.64867 7.140644,5.67823 1.964413,0.68478 0.216766,1.26114 -2.475798,0.81647 -1.946754,-0.32152 -4.197795,-1.14983 -4.513674,-1.66094 -0.444968,-0.71997 -0.699743,-0.16306 -0.699743,1.52956 0,1.75504 0.08053,1.97414 2.057142,5.59682 2.189014,4.01195 2.368567,4.51634 1.529719,4.29696 -0.468077,-0.12241 -0.42178,0.0939 0.411429,1.92225 1.402741,3.07812 1.130696,3.49742 -0.697841,1.07553 -0.608239,-0.8056 -2.059902,-2.25589 -3.225918,-3.22286 -4.32794,-3.58911 -6.335714,-6.82112 -7.311434,-11.76954 -0.07436,-0.37714 -0.09827,1.06266 -0.05312,3.19957 0.06522,3.08656 0.0093,3.85736 -0.271974,3.74943 -0.451027,-0.17307 -2.373158,-3.8959 -2.985973,-5.78329 -0.57682,-1.77654 -0.531198,-1.78406 -1.200482,0.19779 -1.670719,4.94729 -6.135478,10.83286 -14.046992,18.51717 -7.168317,6.96244 -9.398221,11.2738 -13.037417,25.20685 -1.193579,4.56977 -1.230086,4.65598 -2.787546,6.58286 l -1.57813,1.95248 0.0921,4.38857 c 0.119712,5.70435 -0.265196,7.54456 -1.369108,6.54553 -0.577519,-0.52266 -0.648601,-0.39851 -0.885183,1.5459 -0.934431,7.67983 -8.629693,10.57097 -20.291611,7.62363 -4.5055407,-1.13872 -4.9598974,-7.6989 -0.864592,-12.48334 l 0.984918,-1.15066 -0.445743,-1.53331 c -0.407295,-1.40105 -0.408256,-1.59135 -0.01114,-2.20625 1.359839,-2.10555 1.344648,-1.90272 0.145909,-1.9483 -1.080507,-0.0411 -3.030556,-0.86524 -3.1917808,-1.34891 -0.047028,-0.1411 0.4494618,-0.54032 1.1033098,-0.88718 3.114768,-1.65238 3.569797,-2.52675 2.882138,-5.53819 -0.06431,-0.28163 0.309912,-0.5314 1.197381,-0.79918 1.103887,-0.33309 1.31468,-0.51218 1.454891,-1.23607 0.969284,-5.00426 1.18984,-5.41717 2.524803,-4.72685 0.922337,0.47696 1.108436,0.2931 2.180175,-2.15396 0.492091,-1.12359 0.723928,-1.36981 1.28282,-1.36244 0.621515,0.008 3.567115,-5.27657 4.396438,-7.88774 0.191282,-0.60222 2.367103,-9.74718 2.367103,-9.94886 0,-0.0829 -0.310988,0.053 -0.691088,0.30207 -0.486547,0.3188 -1.051578,0.41217 -1.909092,0.31553 -0.927264,-0.10453 -1.319776,-0.025 -1.644352,0.33381 -0.696479,0.76962 -3.326687,1.92763 -4.378202,1.92763 -1.021264,0 -1.201981,-0.21414 -0.648123,-0.768 0.256,-0.256 0.04593,-0.32915 -0.945305,-0.32915 -1.346654,0 -4.595266,-1.60172 -4.595266,-2.26568 0,-0.17568 -0.339429,-0.60576 -0.754286,-0.95575 -0.720181,-0.60754 -0.730812,-0.65143 -0.235116,-0.97031 0.285543,-0.18369 0.869489,-0.66695 1.297656,-1.07394 1.030842,-0.9798 2.302831,-1.32982 5.492887,-1.51145 2.454844,-0.13978 2.67296,-0.19949 3.006688,-0.82305 0.326734,-0.61053 0.51217,-0.66745 2.016001,-0.61882 0.910893,0.0294 2.543465,0.0393 3.627935,0.022 l 1.971764,-0.0316 0.139907,-1.16571 c 0.07695,-0.64114 0.336705,-3.49234 0.577237,-6.33603 0.467986,-5.53278 1.31876,-9.54396 2.873552,-13.54804 l 0.821826,-2.11647 -1.248919,-2.41813 C 31.988025,302.43944 29.441266,293.76 30.363861,293.76 c 0.326187,0 3.882871,4.94707 5.497026,7.64593 l 0.553791,0.92594 0.315481,-0.95591 c 0.208808,-0.6327 0.634448,-1.12768 1.258837,-1.46395 1.430197,-0.77019 1.663592,-3.84908 0.530787,-7.00191 -1.244333,-3.46324 -2.176194,-10.53046 -1.4965,-11.34945 0.19819,-0.23879 0.789078,-0.41779 1.379226,-0.41779 6.115666,0 9.27894,-3.37481 8.392059,-8.95326 -0.242155,-1.52314 -0.440283,-3.95577 -0.440283,-5.40585 v -2.63651 l -4.457143,2.31402 c -4.2685,2.21609 -9.880432,4.80731 -10.411419,4.80731 -1.120518,0 -8.248737,-7.2081 -11.69537,-11.82643 -0.632405,-0.84739 -2.594937,-2.82225 -4.361182,-4.38857 -3.764831,-3.33868 -8.846314,-8.18886 -8.846314,-8.44363 0,-0.0977 0.9336766,-0.97252 2.0748368,-1.94401 2.2567192,-1.92118 2.2550392,-2.1288 -0.017694,-2.1868 -1.7106295,-0.0437 -0.6004844,-0.67893 2.4295852,-1.39031 3.368002,-0.79071 3.50416,-0.8972 1.912086,-1.49548 -3.9937573,-1.50078 -9.180829,-4.6346 -11.757268,-7.10326 -1.24535023,-1.19326 -1.68948072,-2.35084 -0.74440281,-1.94021 1.01198031,0.43969 3.26106211,1.15979 4.11542341,1.31766 l 0.8925663,0.16493 -1.0982806,-1.38943 c -1.5916545,-2.0136 -1.5556517,-2.11443 0.4788623,-1.34115 1.6359927,0.62181 1.6304754,0.62677 0.898225,-0.80856 -1.9136255,-3.75101 -2.8998804,-7.85237 -2.5660561,-10.671 0.1921948,-1.62278 0.340879,-1.71578 0.9889961,-0.61861 1.5854392,2.68394 6.5510124,7.69847 5.8452174,5.90285 -0.3321429,-0.84501 -0.5337876,-3.40434 -0.2676131,-3.39663 0.1342484,0.004 0.4590711,0.47421 0.7218301,1.04514 0.720326,1.56515 2.184326,3.13056 3.698482,3.95467 l 1.355911,0.73798 0.313398,-1.35771 c 0.801125,-3.47067 1.474882,-4.05788 1.940491,-1.69124 0.344407,1.75059 0.538668,1.98354 3.654088,4.38186 1.038495,0.79945 2.024274,1.35867 2.262857,1.28368 1.414174,-0.4445 1.351787,-0.3828 0.902777,-0.89289 -1.038011,-1.17919 -2.674318,-5.61657 -2.674318,-7.25227 0,-0.30982 0.634204,-0.01 2.21184,1.0461 2.647653,1.77217 2.806298,1.799 2.249044,0.38037 -0.541594,-1.37876 -0.262853,-1.7055 0.631828,-0.74063 0.672993,0.72579 1.654151,1.32952 2.979766,1.83352 l 0.670486,0.25492 -0.508364,-0.87814 c -1.195178,-2.06454 -1.711743,-5.95063 -1.201407,-9.03815 0.231324,-1.39951 0.527665,-1.29519 1.369105,0.48195 0.84508,1.78484 3.04066,4.39601 2.56097,3.04573 -0.38372,-1.08014 -0.225723,-1.13272 0.968503,-0.32229 1.271432,0.86281 2.01061,1.07997 7.0372,2.06742 2.21122,0.43438 4.37122,0.97156 4.8,1.19373 l 0.7796,0.40395 -0.09009,-1.71257 c -0.05868,-1.11547 0.05886,-2.06902 0.337111,-2.73498 0.451165,-1.07978 0.987262,-1.10548 0.987262,-0.0473 0,1.65563 8.084052,6.99867 8.826072,5.83347 0.405841,-0.6373 3.043189,1.28545 4.846971,3.53368 0.783629,0.97671 1.429981,1.42245 2.945653,2.03141 1.067957,0.42907 2.665786,1.2433 3.550736,1.8094 l 1.608996,1.02926 2.7565,-1.4603 c 3.722731,-1.97219 12.219357,-8.05357 12.219357,-8.7459 0,-0.12104 0.697623,-1.31892 1.550276,-2.66194 0.912963,-1.43802 1.532797,-2.71484 1.50776,-3.1059 -0.04899,-0.76521 0.635904,-1.94131 1.131143,-1.9424 0.185094,-2.8e-4 0.876721,-0.46657 1.536949,-1.03591 l 1.200411,-1.03516 -2.640411,-2.1725 c -3.006127,-2.4734 -2.96567,-2.36801 -1.680414,-4.37719 0.528,-0.8254 0.96,-1.54103 0.96,-1.5903 0,-0.0493 -1.728,-0.94652 -3.84,-1.99392 -4.516677,-2.23993 -4.729972,-2.56341 -1.577143,-2.39189 l 2.262857,0.1231 -3.041222,-3.11703 c -4.494254,-4.60629 -7.900712,-9.01418 -6.966237,-9.01418 0.657046,0 5.158842,2.00022 6.756897,3.0022 1.567682,0.98293 2.378896,1.15927 1.330562,0.28923 -0.401828,-0.33349 -0.57386,-1.09714 -0.247159,-1.09714 0.09035,0 0.971427,0.44353 1.957945,0.98564 l 1.793675,0.98564 -1.03965,-1.87707 c -1.416225,-2.55697 -1.7219,-2.97005 -4.682828,-6.32825 -3.337541,-3.78535 -3.266797,-4.0343 0.640874,-2.25525 1.892555,0.86163 1.896727,0.86056 1.282632,-0.32697 -0.613747,-1.18685 -0.347188,-1.23018 1.042486,-0.16941 0.667318,0.50937 1.944589,1.14166 2.83838,1.40507 2.328079,0.68613 3.785444,1.39939 5.49211,2.68794 1.741264,1.31466 2.002637,1.2418 1.348633,-0.37596 -0.261724,-0.6474 -0.544326,-1.34986 -0.628008,-1.56101 -0.115954,-0.29258 0.01443,-0.3421 0.548136,-0.20815 l 0.700281,0.17576 -0.649733,-2.10587 c -0.357353,-1.15823 -0.585597,-2.17 -0.507212,-2.24839 0.30771,-0.30771 2.268337,1.01753 4.029438,2.7236 2.246101,2.17591 2.347233,1.86123 0.59972,-1.86609 -1.455796,-3.10511 -2.328211,-5.96077 -2.995441,-9.80492 l -0.476717,-2.74654 1.013541,-3.0511 c 0.970842,-2.92256 0.99524,-3.0865 0.579077,-3.89127 -0.238955,-0.46209 -0.434466,-1.16391 -0.434466,-1.55961 0,-1.01945 -0.803871,-0.78712 -1.198916,0.34651 -0.455358,1.3067 -2.775722,3.83174 -4.534387,4.93436 -0.844397,0.5294 -2.664063,2.07423 -4.043704,3.43294 -1.430614,1.40892 -2.785945,2.50909 -3.154286,2.56046 -0.355216,0.0496 -0.923564,0.17181 -1.262992,0.27171 -0.40568,0.1194 -0.617143,0.0652 -0.617143,-0.15822 0,-0.23966 -0.101088,-0.25659 -0.342857,-0.0574 -0.333109,0.27439 -1.52993,0.4586 -2.434286,0.37468 -0.245719,-0.0228 -0.520624,-0.37982 -0.612658,-0.79565 -0.09381,-0.42383 -0.61177,-1.08703 -1.1823,-1.5138 -1.110561,-0.83072 -1.805703,-2.33925 -1.40659,-3.05243 0.286558,-0.51205 -0.07197,-0.58768 -0.544737,-0.11491 -0.541651,0.54165 -0.712651,0.0131 -0.232734,-0.71931 1.327861,-2.02657 6.789109,-4.89275 11.509876,-6.04062 3.117759,-0.7581 6.052084,-2.44521 7.139594,-4.10496 l 0.438748,-0.66961 -1.484931,-0.43168 c -2.712768,-0.78863 -3.334225,-1.70324 -4.483425,-6.59839 l -0.257568,-1.09715 -0.207448,1.16149 c -0.347413,1.94517 -4.628505,3.61355 -6.412918,2.49916 -0.400492,-0.25011 -0.642637,-0.22135 -1.154452,0.13714 -1.902958,1.33289 -5.193303,0.37726 -6.69694,-1.945 l -1.067545,-1.64875 -3.717699,-0.13902 c -7.886092,-0.29488 -12.070307,-3.37083 -14.41706,-10.59843 -0.264653,-0.81509 -0.948524,-2.09944 -1.519707,-2.8541 -2.228196,-2.94396 -3.90785,-6.65315 -3.534331,-7.80489 2.881953,-8.88645 12.130036,-15.84074 20.406174,-15.34485 5.235406,0.31369 11.919917,3.14293 13.322712,5.63886 0.546509,0.97238 0.763488,1.11123 2.168629,1.38767 2.623225,0.51609 4.620686,1.85479 4.823784,3.23291 0.05454,0.37006 3.837303,0.57998 4.612739,0.25598 1.224966,-0.51182 2.121979,-0.30335 3.399333,0.79002 l 1.056628,0.90443 1.881998,-7.38172 c 1.035101,-4.05995 1.831721,-7.43159 1.770271,-7.49252 -0.0614,-0.0609 -1.346015,0.61699 -2.854586,1.50652 -3.346535,1.97326 -3.154286,1.97292 -3.154286,0.006 0,-2.16961 -1.518626,-4.52745 -4.045714,-6.281441 -2.232861,-1.549769 -2.173226,-1.697511 0.685714,-1.698824 3.138334,-0.0014 6.913852,-0.62865 9.582802,-1.591941 l 2.14292,-0.773434 1.11933,-4.371047 c 0.61564,-2.404076 1.20427,-4.710476 1.30809,-5.125333 0.27082,-1.082309 -1.22315,-0.914965 -11.707314,1.311377 L 92.388797,86.395082 90.472966,84.8204 C 88.38527,83.10446 87.217359,81.555146 86.523564,79.581263 86.27753,78.881286 85.470222,76.697118 84.729544,74.72756 83.988865,72.758 83.382856,70.999143 83.382856,70.818989 c 0,-0.442596 0.469267,-0.415444 0.740656,0.04285 2.020592,3.412197 15.227232,7.406697 21.799308,6.593451 l 1.97071,-0.24386 1.56082,-6.171428 c 0.85845,-3.394286 2.88018,-11.355429 4.49272,-17.691429 1.61254,-6.336 4.15869,-16.342437 5.65812,-22.236529 1.49943,-5.894095 2.72624,-10.843849 2.72624,-10.999458 0,-0.155609 -0.81345,-0.417717 -1.80766,-0.582464 -2.20349,-0.365129 -2.88591,-0.786382 -3.71991,-2.296275 -1.39351,-2.522836 -4.42492,-3.452451 -8.11815,-2.489517 -2.19073,0.571188 -2.43913,0.438671 -1.09684,-0.585146 3.17968,-2.42526 9.89903,-3.57725 12.30607,-2.109797 2.9584,1.803588 7.62371,-0.617797 6.22517,-3.2309848 -1.31202,-2.4515419 -4.91475,-2.5067197 -8.95803,-0.1371975 -2.08647,1.2227545 -9.76272,0.6164108 -12.98084,-1.0253516 -1.5825,-0.8073323 -3.61586,-2.7856657 -4.204244,-4.0904634 -0.641055,-1.4216088 -0.542266,-1.4809939 1.369504,-0.8232468 2.94893,1.0145794 8.14391,0.5457324 12.34493,-1.1141296 7.04044,-2.7817465 18.74269,-2.19913644 25.82495,1.2857256 7.79285,3.8345061 9.39867,11.7857701 3.50582,17.3591761 -3.90896,3.697071 -4.7256,7.576917 -2.19461,10.426674 0.65395,0.736312 1.23412,1.443267 1.28927,1.571007 0.0552,0.127741 1.26327,0.701206 2.68471,1.274367 4.61001,1.858879 7.19478,3.75506 14.9643,10.977729 16.21764,15.076202 25.77252,27.832938 30.95549,41.328733 1.72867,4.501215 5.27003,14.165915 7.43734,20.297145 1.14652,3.24343 2.14978,6.07925 2.22948,6.30182 0.0938,0.26187 0.43427,-0.12533 0.96485,-1.09714 1.53946,-2.81969 4.84468,-5.45259 9.28335,-7.395 2.48917,-1.08929 2.71042,-0.99476 3.42575,1.4636 l 0.5307,1.82386 2.62359,-0.0198 c 2.61476,-0.0198 2.62605,-0.0228 3.36053,-0.90923 1.24322,-1.50045 2.45037,-4.9292 2.41601,-6.862409 -0.0163,-0.919279 -0.02,-2.326173 -0.008,-3.126432 0.028,-1.884313 -0.72866,-2.681752 -3.55628,-3.748087 -4.4964,-1.695651 -7.36059,-3.480513 -8.7987,-5.483037 -0.46504,-0.647564 -1.13753,-1.31043 -1.49441,-1.473035 -2.38382,-1.086144 -4.49318,-4.203281 -4.0261,-5.949644 0.80395,-3.005886 -1.06771,-6.489754 -4.84391,-9.016345 -2.57478,-1.722739 -5.79098,-4.652168 -5.46523,-4.977921 0.0893,-0.0893 0.78769,0.1545 1.55196,0.541786 1.84714,0.936019 2.03178,0.887731 0.71602,-0.187274 -3.62437,-2.961205 -5.53652,-6.305933 -6.01954,-10.529365 -0.23326,-2.039537 0.22411,-2.611266 0.68938,-0.861767 0.84132,3.163468 3.67369,6.7479 6.54185,8.278859 l 1.47989,0.789937 -0.84809,-1.232657 c -0.46645,-0.67796 -1.53354,-1.957514 -2.37132,-2.843451 -3.75934,-3.975445 1.60578,-1.130693 5.74542,3.046395 2.97987,3.00683 3.64553,3.372445 2.59581,1.425757 -2.2836,-4.234903 -2.62734,-7.113995 -0.43506,-3.644029 1.27294,2.014835 4.23454,5.506379 4.47049,5.270431 0.061,-0.06103 -0.10861,-1.021383 -0.37698,-2.134111 -0.62621,-2.596396 -0.62906,-7.655481 -0.006,-9.94786 0.63793,-2.345573 1.01674,-2.552363 1.03396,-0.564425 l 0.0141,1.632 0.42663,-1.028571 c 0.63012,-1.519184 0.82061,-1.280986 1.02895,1.286701 0.24394,3.006512 1.00177,5.688151 2.38482,8.438891 l 1.114,2.21565 0.78845,-1.380515 c 0.882,-1.54433 2.30482,-2.415133 4.30735,-2.636199 1.38549,-0.152952 1.74308,0.194886 0.71751,0.697939 -1.14531,0.561792 -2.25997,2.15136 -2.53284,3.611992 -0.17785,0.951964 -0.16351,1.23848 0.0512,1.023739 0.55169,-0.551685 0.67966,-0.305648 0.66521,1.278945 -0.0275,3.015072 0.72523,3.685739 7.14623,6.367268 6.7765,2.829998 10.56045,5.110684 13.3599,8.052362 1.0409,1.093783 1.73501,1.554962 2.88,1.913514 6.53788,2.047326 9.61098,11.491027 6.06598,18.640868 -1.7527,3.535 -2.42222,3.98909 -7.57455,5.13738 -2.5218,0.56202 -4.9128,1.92621 -5.41342,3.08861 -0.45124,1.04775 -0.93138,1.24867 -1.83205,0.76665 -0.55794,-0.2986 -4.74388,1.12141 -4.92724,1.67148 -0.0582,0.17451 -0.45967,0.68762 -0.89224,1.14026 -0.43256,0.45263 -0.78648,0.94352 -0.78648,1.09086 0,0.14734 -0.34621,0.19865 -0.76935,0.11402 -0.6639,-0.13278 -0.81174,-0.0416 -1.07866,0.66558 -0.17011,0.45069 -1.22625,2.38679 -2.34697,4.30244 -2.12464,3.63165 -3.11693,6.36176 -3.75825,10.34014 -0.52375,3.24908 -3.24995,6.38745 -7.68105,8.84234 -0.98058,0.54325 -1.82758,1.02183 -1.88224,1.0635 -0.0913,0.0696 1.55817,7.83741 1.68796,7.94903 0.0314,0.027 0.96691,0.43415 2.07885,0.90473 l 2.02172,0.8556 0.97424,-0.60211 c 0.73739,-0.45574 1.53416,-0.63151 3.27733,-0.723 l 2.30309,-0.12088 0.73524,0.87293 c 0.72339,0.85887 0.79548,0.87889 4.4756,1.24341 4.18952,0.41496 4.46475,0.51347 5.80301,2.07692 1.51712,1.77242 1.79626,3.23183 0.94654,4.94881 -0.45107,0.91144 -0.58185,1.42886 -0.37825,1.49653 0.17116,0.0569 8.77748,1.71564 19.12516,3.68613 19.35424,3.6856 22.19175,4.39089 22.19175,5.51599 0,0.54719 -1.66543,1.08032 -3.32326,1.06382 -0.66135,-0.007 -9.78074,-1.6596 -20.26532,-3.67336 l -19.06285,-3.66139 -0.54857,0.64041 c -0.30172,0.35222 -0.85464,0.67837 -1.22871,0.72478 -0.67621,0.0839 -0.67395,0.0912 0.39371,1.27105 1.23736,1.36737 1.07097,1.68214 -0.89291,1.68913 -1.35187,0.005 -2.56762,-0.53918 -3.20532,-1.43423 -0.3822,-0.53646 -0.47377,-0.56136 -0.68878,-0.18733 -0.88558,1.54056 -2.94628,3.97414 -3.98546,4.70662 -1.2007,0.84633 -1.2269,0.8972 -1.23087,2.38908 -0.002,0.83839 -0.19023,2.31416 -0.41778,3.27949 -0.32167,1.36464 -0.35128,2.09291 -0.13309,3.27323 0.15435,0.83495 0.28063,2.21646 0.28063,3.07001 v 1.55193 l 1.09715,0.32871 c 1.0264,0.30752 1.36293,0.77233 0.89673,1.23853 -0.11023,0.11023 -0.16204,1.03102 -0.11514,2.0462 0.0966,2.09158 -0.47042,4.10167 -2.03165,7.20185 -1.28627,2.55419 -1.02375,4.48902 0.80417,5.92686 0.90371,0.71086 0.91458,1.12244 0.0345,1.30517 -0.37714,0.0783 -1.00309,0.20864 -1.391,0.28965 -0.59962,0.12521 -0.68263,0.25876 -0.55411,0.89143 0.0831,0.40928 0.46319,3.27443 0.84455,6.367 0.38137,3.09257 0.75414,5.93143 0.8284,6.30857 0.44979,2.2844 1.28719,16.54912 1.27309,21.68663 l -0.0162,5.91519 1.83908,-0.21653 c 2.73918,-0.32251 5.73667,-1.02161 7.68686,-1.7928 2.04715,-0.80953 2.21861,-0.72618 1.55111,0.75409 -0.66066,1.46508 -3.05799,3.63205 -5.01557,4.53363 -1.1133,0.51273 -1.67836,0.96535 -1.97189,1.57949 -0.22628,0.47345 -0.81645,1.13002 -1.31148,1.45904 -0.49504,0.32903 -0.80259,0.65846 -0.68346,0.73209 1.00053,0.61836 8.19224,1.54284 12.05875,1.55013 1.38653,0.003 2.59432,0.12346 2.68398,0.26853 0.36054,0.58332 -5.00766,2.75337 -6.81116,2.75337 -1.63842,0 -1.69631,0.18922 -0.46617,1.52376 3.23718,3.51192 2.14052,7.90741 -5.1971,20.83053 -1.28484,2.26285 -2.50994,4.45371 -2.72247,4.86857 -1.06341,2.07579 -1.09301,0.26208 -0.0645,-3.9541 l 0.77776,-3.18838 -2.21776,1.67234 c -3.32622,2.50821 -7.83713,7.15003 -7.8547,8.08265 -0.008,0.4111 -0.10714,1.58464 -0.22087,2.60783 l -0.20679,1.86034 0.97516,-1.08641 c 6.49707,-7.23835 17.95708,-4.39214 18.60189,4.61995 0.63105,8.81977 -6.64373,16.91874 -17.38564,19.35539 -5.11935,1.16124 -5.99935,0.86866 -2.77824,-0.92369 1.09372,-0.60858 2.34872,-1.40223 2.7889,-1.76368 l 0.80033,-0.65716 -1.8829,-0.17585 c -3.10076,-0.28953 -6.25719,-2.02524 -7.67204,-4.21879 -1.28815,-1.99707 -1.50857,-2.09422 -1.50857,-0.66492 0,1.58367 0.6796,3.22195 2.20228,5.30888 1.58937,2.17833 1.57505,2.13131 0.64874,2.13131 -3.63996,0 -8.30872,-3.18086 -10.0647,-6.85714 l -0.72057,-1.50857 -0.01,2.83427 c -0.0113,3.19905 -0.21639,3.40192 -1.40094,1.38578 -1.10245,-1.87639 -2.19081,-4.79111 -2.54283,-6.80988 l -0.31767,-1.82181 -3.11875,3.39061 -3.11875,3.39061 0.78732,0.868 c 0.43303,0.4774 0.85543,0.93164 0.93868,1.00949 4.46923,4.17838 9.42654,14.68498 13.04474,27.64723 3.4545,12.37582 4.52741,15.01157 8.24604,20.25742 l 1.86813,2.6354 0.24241,-1.02504 c 0.55991,-2.36755 3.71076,-0.6952 5.43698,2.88576 l 1.18177,2.45151 1.62769,0.005 c 1.10416,0.003 2.01302,-0.18194 2.82574,-0.57537 1.60931,-0.77906 1.78167,-0.0602 0.85643,3.57213 -0.0652,0.25596 0.28869,0.48746 1.04821,0.68571 1.54938,0.40441 1.55217,0.40973 1.48151,2.82992 -0.0736,2.52121 -0.0857,2.54013 -1.20586,1.8858 -2.95945,-1.72885 -5.49905,-2.91212 -4.91434,-2.28971 0.55394,0.58963 0.61205,0.92821 0.61205,3.56618 0,1.7958 0.11401,2.98519 0.29698,3.09825 0.78642,0.48603 2.0958,4.77578 2.2988,7.5312 0.0688,0.93377 0.25245,1.85126 0.40812,2.03882 0.40664,0.48998 1.84003,4.03633 2.07205,5.12645 0.10814,0.50809 0.49144,1.57544 0.85176,2.37192 2.9066,6.42478 -7.73811,12.53672 -17.58485,10.09684 z m -23.50133,-99.0421 c 0.36293,-0.79655 0.15288,-0.86447 -0.73986,-0.23918 -0.49953,0.34991 -0.55727,0.49742 -0.26675,0.68152 0.55675,0.35281 0.66623,0.3047 1.00661,-0.44234 z m 34.95559,-3.58574 c 4.71984,-1.60822 6.04728,-7.32474 2.30336,-9.91927 -4.37247,-3.03011 -10.77216,3.1434 -7.90198,7.62273 1.65313,2.57996 3.06596,3.1595 5.59862,2.29654 z M 215.21971,229.44 c -0.17271,-7.44035 -1.44153,-18.32515 -2.94878,-25.29679 -0.74982,-3.46819 -0.74669,-3.46362 -2.63889,-3.85445 -2.39685,-0.49507 -2.7853,-1.07198 -1.59011,-2.36162 0.54833,-0.59166 0.60266,-0.76625 0.27727,-0.89111 -0.63555,-0.24388 -1.05259,-2.17994 -0.69165,-3.21092 0.26471,-0.75614 0.23046,-0.92403 -0.27189,-1.33286 -1.00499,-0.81789 -1.03551,-2.2956 -0.0685,-3.31951 1.56159,-1.65359 1.42638,-5.30257 -0.35705,-9.63587 -0.37634,-0.91442 -0.82987,-2.5461 -1.00784,-3.62595 l -0.32359,-1.96336 -1.65646,-0.34586 c -1.63798,-0.34199 -2.50992,-0.74152 -3.57646,-1.63875 -1.34531,-1.13175 -13.30708,-1.15027 -17.43342,-0.027 -4.90017,1.33393 -8.88638,1.98357 -13.19124,2.14978 l -4.29324,0.16576 -2.02818,-2.02861 c -1.1155,-1.11573 -2.26388,-2.42783 -2.55196,-2.91577 -1.08984,-1.84597 -2.88547,-1.15156 -6.5473,2.53199 -2.69341,2.70938 -3.37262,3.23277 -5.78364,4.45676 l -2.73184,1.38686 1.36041,-0.14648 1.36041,-0.14648 -0.56158,0.65369 c -1.33889,1.55846 -1.33658,1.56925 0.22066,1.03126 0.79094,-0.27325 2.11692,-0.50166 2.94664,-0.50758 0.82971,-0.006 3.19384,-0.43612 5.25361,-0.95601 2.05977,-0.51988 4.40492,-1.01687 5.21143,-1.10442 0.80651,-0.0875 2.05267,-0.22106 2.76924,-0.29668 0.76429,-0.0807 1.30286,-0.026 1.30286,0.13225 0,0.32922 -6.41563,3.9768 -9.92541,5.64305 -1.96796,0.93428 -2.94684,1.60928 -4.26273,2.93944 l -1.70814,1.72666 1.84528,-0.0908 c 2.34225,-0.11521 2.16105,0.0577 -2.05582,1.96213 -5.54244,2.50304 -8.27748,4.73946 -10.87103,8.88915 l -0.72533,1.16051 4.70188,7.06806 c 5.2584,7.90466 6.58151,9.34015 8.788,9.53447 1.21296,0.10682 2.84301,0.63596 5.97839,1.94069 1.64518,0.6846 1.9088,0.71899 3.56572,0.46508 2.07439,-0.31789 2.11891,-0.3016 1.69827,0.62162 -0.81381,1.78611 5.31879,0.97923 11.54599,-1.51913 1.52046,-0.61001 2.87916,-1.07089 3.01934,-1.02416 0.2962,0.0987 -1.63822,2.6231 -2.59567,3.38726 -0.95505,0.76224 -2.13537,2.73806 -1.48706,2.48928 0.26755,-0.10267 1.6183,-0.31258 3.00167,-0.46648 2.47767,-0.27564 7.50196,-1.13013 9.64665,-1.64063 2.85228,-0.67892 2.4063,0.0828 -1.64572,2.81082 -1.98055,1.33341 -2.29234,1.62789 -1.57714,1.4896 0.65159,-0.12599 0.89143,-0.0725 0.89143,0.19893 0,0.20421 -0.40114,0.54055 -0.89143,0.74743 -0.80091,0.33794 -0.20906,0.39367 5.82857,0.54886 10.63007,0.27324 14.83071,2.27767 17.93358,8.55741 1.48907,3.01363 3.82142,4.54592 6.28809,4.13111 l 0.87548,-0.14723 -0.64753,0.5687 c -2.01455,1.76931 -6.70441,0.0261 -10.56044,-3.92521 -0.94916,-0.97262 -1.17911,-1.1279 -0.74935,-0.50602 0.34102,0.49346 0.8658,1.59645 1.16618,2.45109 0.30038,0.85464 0.88976,2.04989 1.30973,2.65612 l 0.76358,1.10223 2.85034,0.0573 c 2.04262,0.0411 3.47216,0.23915 5.04463,0.69893 l 2.19428,0.6416 0.21892,-3.4294 c 0.12041,-1.88617 0.16448,-5.77454 0.0979,-8.64083 z m -14.78051,2.60572 c -0.18842,-0.30172 -0.45546,-0.54858 -0.59341,-0.54858 -0.13795,0 -0.0274,0.24686 0.24564,0.54858 0.27304,0.30171 0.54007,0.54857 0.5934,0.54857 0.0533,0 -0.0572,-0.24686 -0.24563,-0.54857 z M 144,210.37714 c -0.16147,-0.30171 -0.3553,-0.54857 -0.43073,-0.54857 -0.0754,0 -0.005,0.24686 0.15644,0.54857 0.16147,0.30172 0.3553,0.54858 0.43073,0.54858 0.0754,0 0.005,-0.24686 -0.15644,-0.54858 z m -1.09715,-1.51244 c 0,-0.0776 -1.296,-2.08267 -2.88,-4.45581 -1.7632,-2.64162 -2.88,-4.08902 -2.88,-3.73257 0,0.32022 0.18946,0.73946 0.42101,0.93163 0.30786,0.2555 0.41208,0.8358 0.3878,2.1593 -0.0448,2.44263 0.48219,3.75714 1.82551,4.55338 0.93405,0.55366 3.12568,0.93514 3.12568,0.54407 z m 78.17143,-44.85714 c 0,-0.14244 -0.38468,-0.25899 -0.85484,-0.25899 -0.75266,0 -0.83508,0.0738 -0.68947,0.61714 0.091,0.33943 0.17098,0.80229 0.17781,1.02858 0.0136,0.45021 1.3665,-0.92273 1.3665,-1.38673 z M 96.411427,150.85714 c 0.273049,-0.30171 0.373023,-0.54857 0.222166,-0.54857 -0.150857,0 -0.497689,0.24686 -0.770737,0.54857 -0.273049,0.30172 -0.373023,0.54857 -0.222166,0.54857 0.150857,0 0.497688,-0.24685 0.770737,-0.54857 z m 0.137143,-3.85618 c 0,-0.14196 -0.185143,-0.2581 -0.411429,-0.2581 -0.424158,0 -0.544923,0.32364 -0.236028,0.63254 0.219135,0.21914 0.647457,-0.0286 0.647457,-0.37444 z m 104.61666,-3.20667 c -0.21298,-1.18198 -0.56152,-1.71429 -1.12248,-1.71429 -0.21612,0 -1.34272,-0.61822 -2.50356,-1.37382 l -2.11062,-1.37383 2.88,2.74249 c 3.33677,3.17745 3.09293,3.03068 2.85666,1.71945 z m -34.3213,-4.02915 c 3.01157,-1.95745 6.37905,-2.47459 8.17765,-1.25585 1.855,1.25697 2.48785,1.1468 1.73833,-0.30261 -0.30894,-0.59742 -0.34703,-0.9273 -0.13639,-1.18111 0.21344,-0.25719 0.0735,-0.88265 -0.51878,-2.319 -0.44608,-1.08176 -0.93643,-2.64504 -1.08967,-3.47397 -0.17675,-0.95613 -0.57792,-1.88104 -1.09731,-2.52987 -0.45029,-0.5625 -1.00229,-1.46455 -1.22668,-2.00457 -0.22438,-0.54 -0.60926,-1.14889 -0.85528,-1.35307 -2.29712,-1.90644 -2.21546,-5.56651 0.21029,-9.42564 1.67615,-2.6666 2.39962,-4.45559 2.39962,-5.93382 v -1.0942 h -1.33119 c -0.73216,0 -2.0917,-0.0795 -3.02122,-0.17664 l -1.69002,-0.17665 0.83217,1.77832 c 1.48043,3.16359 1.82399,6.39693 0.47514,4.47161 -2.03146,-2.89966 -5.49212,-5.12125 -9.42073,-6.04767 l -2.54057,-0.5991 0.39702,0.60593 c 0.39519,0.60313 1.77176,1.79127 3.74415,3.23163 1.19121,0.8699 1.31691,1.30114 0.37927,1.30114 -1.77248,0 -1.23374,1.3308 1.62277,4.00853 3.17186,2.97336 3.08257,3.14735 -0.91418,1.78132 l -3.0546,-1.04401 -0.27427,0.84994 c -1.34404,4.16498 -2.20375,11.95851 -1.31916,11.95851 0.57091,0 5.63427,2.5927 6.65256,3.40646 0.81052,0.64771 0.82213,0.69379 0.77395,3.07212 -0.0613,3.02459 -0.001,3.15976 1.08713,2.45227 z m 26.86098,-2.15091 c -0.80412,-0.81424 -1.43063,-1.69909 -1.43063,-2.02057 0,-0.42811 -0.34771,-0.71645 -1.38258,-1.14653 l -1.38258,-0.57457 0.58371,0.81975 c 0.32104,0.45086 1.42896,1.49415 2.46203,2.31843 1.03308,0.82427 1.95528,1.6232 2.04935,1.7754 0.0941,0.15219 0.25209,0.27672 0.35118,0.27672 0.0991,0 -0.46363,-0.65188 -1.25048,-1.44863 z m -12.12777,-4.7228 c 0,-0.50807 -0.14543,-0.68572 -0.56138,-0.68572 -0.54712,0 -0.54886,0.0172 -0.0686,0.6771 0.61473,0.84461 0.62995,0.84482 0.62995,0.009 z m -26.33917,-13.94479 c 1.08328,-1.33362 1.92933,-2.45212 1.8801,-2.48555 -2.73371,-1.85613 -6.59929,-5.61197 -8.08211,-7.85266 l -0.77649,-1.17336 -0.32544,1.9437 c -0.179,1.06904 -0.63842,3.08882 -1.02093,4.48842 -0.86134,3.15156 -0.90428,3.12407 1.4727,0.94271 2.28042,-2.09274 2.55214,-2.16385 2.9638,-0.77561 0.29492,0.99458 1.42754,7.0063 1.42754,7.57711 0,0.35679 0.0539,0.29838 2.46083,-2.66476 z m -53.75836,0.86502 c 0.003,-0.10358 0.40335,-0.22701 0.88888,-0.27428 1.38494,-0.13484 1.57967,-1.28507 0.64997,-3.83919 -0.40176,-1.10372 -0.94202,-3.08461 -1.20058,-4.40197 l -0.47012,-2.39522 -1.33404,5.19924 c -1.441108,5.61647 -1.468172,6.37466 -0.24285,6.80368 0.71422,0.25008 1.68538,-0.3707 1.70874,-1.09226 z M 160.45714,113.28 c 0,-0.15086 -0.12343,-0.27429 -0.27429,-0.27429 -0.15085,0 -0.27428,0.12343 -0.27428,0.27429 0,0.15086 0.12343,0.27429 0.27428,0.27429 0.15086,0 0.27429,-0.12343 0.27429,-0.27429 z m 30.73917,-6.33056 c -0.29021,-0.81762 -0.53668,-1.35428 -0.5477,-1.19259 -0.0282,0.41423 0.84199,2.91255 0.96994,2.7846 0.058,-0.058 -0.13202,-0.77439 -0.42224,-1.59201 z m 40.75841,-13.648573 c 0.51609,-2.03353 -1.74194,-4.714143 -3.95551,-4.69578 l -1.30207,0.01081 1.82772,1.703485 c 2.09049,1.948396 2.4317,2.498046 2.22426,3.583148 -0.1927,1.008093 0.94061,0.442513 1.2056,-0.601654 z M 107.74654,91.365518 c 3.97847,-3.931395 7.66579,-5.756906 14.23235,-7.046131 0.77347,-0.151858 0.54481,-0.877007 -0.38844,-1.231826 -1.38009,-0.524711 -12.31329,-0.05946 -13.52452,0.575523 -0.26024,0.136433 -0.81026,1.831414 -1.48059,4.562707 -0.58659,2.390101 -1.12318,4.499924 -1.19242,4.688495 -0.28783,0.78387 0.55292,0.230622 2.35362,-1.548768 z m 26.92774,-10.818786 c 0,-5.321014 -0.36006,-7.336882 -1.95399,-10.939614 -1.28503,-2.904538 -3.26916,-9.265574 -2.88771,-9.257911 0.17379,0.0035 0.8097,0.885134 1.41313,1.959204 1.01571,1.807907 4.44298,5.888618 4.7162,5.615391 0.11139,-0.111388 -0.30187,-1.900147 -0.64645,-2.798101 -0.35374,-0.921842 0.67095,-0.279843 1.62168,1.016031 l 1.02857,1.401967 v -4.057563 c 0,-2.23166 0.0758,-3.981784 0.16841,-3.88916 0.32791,0.327914 3.65888,8.845459 3.66519,9.372167 0.0125,1.041655 0.49107,-0.0076 1.4951,-3.277714 1.95394,-6.36395 5.91382,-15.998932 6.68042,-16.254468 0.24586,-0.08195 0.33594,0.562854 0.34208,2.448754 0.006,1.873199 0.0833,2.431225 0.28792,2.079999 0.55355,-0.950402 0.8009,-0.442721 0.8018,1.645715 5.4e-4,1.169143 0.0819,4.077534 0.1808,6.46309 l 0.17989,4.337379 1.67062,-1.617312 c 2.28876,-2.215719 3.52984,-3.127782 6.66245,-4.896228 1.4785,-0.834651 2.78548,-1.611555 2.9044,-1.726453 0.26654,-0.257532 -6.09792,-5.358871 -10.91336,-8.747449 -1.96115,-1.380035 -4.09648,-2.89082 -4.74519,-3.357298 -0.64871,-0.46648 -1.51271,-0.953617 -1.92,-1.082532 -0.40729,-0.128911 -1.6479,-0.504765 -2.75691,-0.83523 -1.78512,-0.53193 -2.11265,-0.73742 -2.85572,-1.791626 -0.48991,-0.695029 -1.13494,-1.25884 -1.54934,-1.35425 -0.97862,-0.225312 -2.06144,-1.184527 -2.62937,-2.329234 -0.26196,-0.528 -1.60612,-2.132572 -2.98701,-3.565714 -5.32361,-5.525025 -6.56804,-7.271115 -8.18278,-11.481477 -0.48365,-1.261097 -0.90804,-2.186811 -0.94309,-2.057142 -0.035,0.129668 -2.2384,8.814047 -4.89634,19.298619 -2.65794,10.484571 -5.81206,22.899162 -7.00915,27.587978 -1.19709,4.688818 -2.17653,8.620641 -2.17653,8.737382 0,0.116742 0.52457,0.159143 1.16571,0.09422 5.03904,-0.510235 12.5136,1.83151 17.99424,5.637515 1.77417,1.232061 4.21564,2.233388 5.73148,2.350661 0.26212,0.02027 0.34285,-1.09341 0.34285,-4.729599 z M 182.4,82.925892 c 0,-0.100474 -0.69445,-1.634241 -1.54322,-3.408368 l -1.54322,-3.225687 -1.47392,0.978629 c -1.69006,1.122133 -1.79592,1.289557 -0.65723,1.039461 1.86364,-0.409325 2.41568,0.306807 0.89759,1.164397 -0.56572,0.319582 -1.49758,1.144595 -2.0708,1.833367 l -1.04222,1.252309 1.86508,0.02977 c 1.51179,0.02414 4.32504,0.27516 5.36222,0.478477 0.11315,0.02219 0.20572,-0.04188 0.20572,-0.142355 z m 29.63103,-5.013474 c -0.15698,-0.293313 -0.42725,-0.620953 -0.6006,-0.728091 -0.21121,-0.130533 -0.24188,-0.0677 -0.093,0.190436 0.58828,1.019795 1.2092,1.501136 0.69356,0.537655 z m -46.34275,-2.342126 c 0.66802,-0.22377 3.60761,-0.77566 6.53243,-1.226427 2.92482,-0.450767 5.3644,-0.866123 5.4213,-0.923018 0.13675,-0.136751 -2.40694,-4.025724 -3.92454,-6.000126 -0.6604,-0.859173 -2.15528,-2.378902 -3.32195,-3.377173 -1.16668,-0.998271 -2.76048,-2.362739 -3.54178,-3.032152 -1.79402,-1.537108 -1.69122,-1.561133 -2.83911,0.663519 -0.79179,1.534519 -0.87943,1.853233 -0.48097,1.749032 0.61683,-0.161304 0.32524,0.735393 -1.52655,4.694485 -0.69491,1.48571 -1.11194,2.63777 -0.92672,2.560136 0.18521,-0.07763 2.3363,-1.015498 4.78019,-2.084146 6.03553,-2.639171 6.30895,-2.617338 3.39195,0.270868 -1.04596,1.035637 -2.35372,2.658334 -2.90614,3.605988 -0.55241,0.947654 -1.30748,2.124151 -1.67792,2.614437 -0.76317,1.010068 -0.67459,1.052157 1.01981,0.484577 z M 138.57206,18.728833 c 1.89115,-0.884977 2.80515,-2.052368 3.33738,-4.262628 0.82037,-3.406866 -5.17341,-4.325525 -7.51766,-1.152224 -0.58968,0.798222 -1.63135,1.852903 -2.31482,2.343735 -3.84473,2.761078 1.62792,5.348745 6.4951,3.071117 z m 99.56279,141.947737 c -0.58125,-0.58125 -0.39056,-1.81225 0.35657,-2.30179 1.37233,-0.89919 2.79736,1.02868 1.62613,2.19991 -0.51156,0.51156 -1.52114,0.56344 -1.9827,0.10188 z"
       id="path135" />
  </g>
</svg>
