<?xml version="1.0" encoding="UTF-8" standalone="no"?>
<!-- Created with Inkscape (http://www.inkscape.org/) -->

<svg
   version="1.1"
   id="svg9"
   width="274.29572"
   height="462.99435"
   viewBox="0 0 274.29572 462.99435"
   sodipodi:docname="default.svg"
   inkscape:version="1.1 (c68e22c387, 2021-05-23)"
   xmlns:inkscape="http://www.inkscape.org/namespaces/inkscape"
   xmlns:sodipodi="http://sodipodi.sourceforge.net/DTD/sodipodi-0.dtd"
   xmlns="http://www.w3.org/2000/svg"
   xmlns:svg="http://www.w3.org/2000/svg">
  <defs
     id="defs13" />
  <sodipodi:namedview
     id="namedview11"
     pagecolor="#ffffff"
     bordercolor="#666666"
     borderopacity="1.0"
     inkscape:pageshadow="2"
     inkscape:pageopacity="0.0"
     inkscape:pagecheckerboard="0"
     showgrid="false"
     fit-margin-top="0"
     fit-margin-left="0"
     fit-margin-right="0"
     fit-margin-bottom="0"
     inkscape:zoom="1.6911656"
     inkscape:cx="199.56651"
     inkscape:cy="243.91462"
     inkscape:window-width="1920"
     inkscape:window-height="1001"
     inkscape:window-x="-9"
     inkscape:window-y="-9"
     inkscape:window-maximized="1"
     inkscape:current-layer="g15" />
  <g
     inkscape:groupmode="layer"
     inkscape:label="Image"
     id="g15"
     transform="translate(62.679522,12.417479)">
    <path
       style="fill:#000000;stroke-width:0.274286"
       d="m 2.0622668,450.01221 c -5.08926,-1.5001 -10.70665,-8.33933 -10.70665,-13.03552 0,-2.36283 0.67508,-5.38634 1.67901,-7.51987 1.18655,-2.52167 1.20641,-2.81466 0.22989,-3.39149 -2.23773,-1.32186 -2.01239,-2.88438 1.10707,-7.67662 2.95691,-4.54253 4.83922002,-7.92908 5.05937002,-9.10253 l 0.1994,-1.06294 -2.05112002,1.94836 c -1.12812,1.07161 -2.98546,2.6516 -4.12743,3.51111 l -2.07631,1.56277 -0.819,-0.58319 c -0.9771498,-0.69578 -2.7676498,-2.73762 -2.7640198,-3.15198 10e-4,-0.16142 0.89627,-0.56572 1.98857,-0.8984 3.3229998,-1.01217 5.6337698,-2.82366 3.6019098,-2.82366 -1.19607,0 -2.35619,-0.7674 -2.14865,-1.42129 0.17162,-0.54073 0.11261,-0.55966 -1.15176,-0.36916 -2.1709998,0.32705 -6.9384998,0.39414 -7.1201698,0.10019 -0.0911,-0.14734 0.0874,-0.78391 0.39659,-1.41454 0.3092,-0.63064 0.62084,-1.3479 0.69254,-1.59391 0.11139,-0.38218 0.78226,-0.46793 4.60867,-0.589 4.9317398,-0.15606 5.6145298,-0.2798 5.8629398,-1.06247 0.22729,-0.71613 3.07411,-3.89571 4.66524002,-5.21052 1.58565,-1.31032 2.43073998,-1.55998 3.13203998,-0.92531 0.5006,0.45301 0.5303,0.42633 0.80346,-0.72178 0.15601,-0.65571 1.40761,-4.55556 2.78134,-8.6663 3.03969,-9.096 3.16802,-9.85032 3.54206,-20.82024 0.36661,-10.75241 0.8539702,-15.99593 1.9351502,-20.82037 0.22492,-1.00364 0.17336,-1.43706 -0.31506,-2.64836 -0.32121,-0.79661 -0.80334,-2.12723 -1.0714202,-2.95694 l -0.48741,-1.50857 -0.0294,2.60571 c -0.0406,3.60656 -0.49226,8.95327 -0.87545,10.36433 -0.37171,1.36879 -0.89135,1.38799 -1.01186,0.0374 -0.19469,-2.18191 -2.40945,-8.99855 -3.99318,-12.29028 -0.53603,-1.11414 -1.12439,-2.69502 -1.30746,-3.51305 l -0.33286,-1.48737 -0.45108,1.45591 c -0.81418998,2.62785 -3.77117,7.78368 -4.21347,7.34664 -0.0799,-0.0789 -0.0317,-1.74523 0.10704,-3.70286 0.4529,-6.38902 -0.13794,-10.03472 -2.87905,-17.76453 -1.67702,-4.7291 -2.17783,-7.05539 -1.91982,-8.91763 0.17269,-1.24644 0.16373,-1.26846 -0.27393,-0.67321 -1.65463,2.25038 -2.4861698,5.95675 -2.27309,10.13168 0.15036,2.94607 0.0795,3.14441 -0.8397798,2.35011 -2.86983,-2.47974 -4.76829,-7.74037 -5.14766,-14.26412 -0.21995,-3.78251 -0.36908,-3.89555 -1.6595,-1.25801 -1.09375,2.23553 -1.87559,0.48548 -1.26791,-2.83807 l 0.26019,-1.42305 -0.93711,0.71477 c -4.5001,3.43241 -8.44087,11.11142 -8.37811,16.32562 0.0177,1.47086 -0.0224,2.67428 -0.0892,2.67428 -0.19241,0 -1.50618,-3.00639 -2.03695,-4.66129 l -0.48333,-1.50701 -0.30415,1.09558 c -0.45876,1.65249 -0.37724,7.32779 0.14289,9.94813 0.51651,2.60203 0.44278,2.81282 -0.69939,1.99954 -2.40013,-1.70905 -5.7131,-7.25011 -6.68244,-11.17662 l -0.58029,-2.35058 -0.50865,1.74899 c -0.44436,1.52793 -0.49831,2.5723 -0.42685,8.26332 0.045,3.58286 1e-4,6.51429 -0.0998,6.51429 -0.0999,-3e-5 -0.64066,-1.10765 -1.20178,-2.46139 -0.56111,-1.35374 -1.41895,-2.92745 -1.90631,-3.49714 -0.48735,-0.56969 -1.21169,-1.5159 -1.60965,-2.10265 -0.39795,-0.58678 -0.7226,-1.01878 -0.72145,-0.96 0.0151,0.76923 1.24139,3.79894 1.90036,4.69498 1.42486,1.93752 0.35802,1.5984 -1.57113,-0.49942 -6.30564,-6.85695 -9.35454,-17.16944 -7.29082,-24.66015 0.0831,-0.30172 -0.17774,-0.0785 -0.5797,0.49593 -2.28425,3.26472 -1.52753,-3.85267 0.88857,-8.35748 0.0536,-0.0999 -0.68071,0.0641 -1.63171,0.36427 -1.91538,0.60467 -8.55493,0.78114 -9.09434,0.24173 -0.36024,-0.36022 -0.42429,-0.32582 2.29096,-1.23083 6.39741,-2.13229 13.37999,-7.9203 14.44358,-11.9726 l 0.31748,-1.2096 -1.24069,1.37143 -1.24068,1.37143 0.17189,-1.16522 c 0.0945,-0.64087 0.47235,-2.12201 0.83959,-3.29143 l 0.66769,-2.12621 -0.66449,0.81938 c -0.36546,0.45065 -1.30955,1.90914 -2.09797,3.24107 -2.18437,3.69027 -2.54822,3.65071 -1.33241,-0.14483 0.45824,-1.4305 0.83315,-2.85235 0.83315,-3.15968 0,-3.03802 2.74887,-9.57952 5.08657,-12.10451 3.61139,-3.90072 11.9901,-8.07753 22.20481,-11.06912 l 2.19424,-0.64263 -2.70035,-1.08698 c -3.12665,-1.25858 -3.36049,-1.58326 -1.27669,-1.7727 1.3208,-0.12007 1.40615,-0.16136 0.68571,-0.33172 -1.86277,-0.44049 -11.61644,-2.37043 -12.83929,-2.54049 -1.67645,-0.23314 -1.55858,-0.63228 0.4218,-1.42839 4.99938,-2.00972 10.75018,-2.31383 20.64606,-1.09177 5.5463098,0.68493 6.9454198,0.7634 11.5792198,0.64949 l 5.27064,-0.12958 1.34454,-1.47234 c 2.86436,-3.13661 4.09759,-4.86328 5.35878,-7.50289 3.6064402,-7.54812 11.6358602,-18.41201 19.6601702,-26.6004 l 4.57829,-4.67191 0.18557,-1.52176 0.18557,-1.52176 -1.91919,-2.21728 c -1.12076,-1.29485 -2.83713,-2.86051 -4.12564,-3.76339 -2.98244,-2.08985 -6.60644,-5.80056 -8.93039,-9.14407 -1.39923,-2.01309 -2.44781,-3.17333 -3.87144,-4.28371 l -1.95246,-1.52284 -0.46899,3.07312 c -0.25794,1.69022 -0.65023,3.87541 -0.87174,4.85598 -0.25671,1.13636 -0.49551,4.62525 -0.65855,9.62139 -0.5884002,18.0316 -3.4015102,27.23113 -9.47469018,30.98456 -1.43629,0.88768 -1.40104,0.53604 0.1549,-1.54545 3.18427998,-4.25982 4.50237998,-8.66732 5.32421998,-17.80336 0.38518,-4.28183 0.66238,-8.42749 0.55409,-8.28661 -0.0246,0.0319 -0.92535,2.08446 -2.0018,4.56119 -3.63248,8.35773 -9.26856,15.58496 -13.16235,16.87826 -1.9625498,0.65186 -2.2957098,0.40821 -0.82523,-0.60351 4.11859,-2.83366 9.95969002,-13.06145 12.31648,-21.56622 0.71573,-2.58279 0.56866,-2.51653 -0.7015,0.31607 -5.46401,12.18541 -9.68328,17.13489 -18.9223098,22.19716 -4.4506,2.43859 -6.59373,4.67278 -9.48353,9.88652 -0.77344,1.39543 -1.5089,2.53714 -1.63435,2.53714 -0.60711,0 0.63123,-5.09566 1.80453,-7.42554 0.5383,-1.06892 0.81799,-1.84053 0.62152,-1.71469 -0.19647,0.12585 -2.04752,1.33903 -4.11344,2.69596 -2.06592,1.35692 -4.61435,3.00572 -5.66317,3.66399 -3.62861,2.27742 -7.70483,6.80169 -9.58851,10.64242 -0.86705,1.76789 -1.15364,1.84229 -1.14733,0.29786 0.0208,-5.09329 3.00337,-11.14242 7.89299,-16.00825 l 2.58178,-2.56923 -2.04032,0.92981 c -4.38418,1.99794 -6.71378,3.54809 -10.22207,6.80195 -1.76581,1.63775 -1.58963,0.81851 0.47487,-2.20823 2.1438,-3.14299 5.99052,-6.83164 8.46126,-8.11356 1.11941,-0.5808 3.08444,-1.68714 4.36672,-2.45853 l 2.33143,-1.40253 -2.74285,-0.17751 c -6.89846,-0.44646 -13.09867,-3.23746 -15.63933,-7.03997 -0.37156,-0.5561 -0.94616,-1.3485 -1.27689,-1.76089 -1.02896,-1.283 -0.31779,-1.16584 1.19851,0.19744 5.62017,5.05301 18.60625,6.87698 24.25632,3.40693 1.55833,-0.95706 4.33094,-5.39393 5.16625,-8.26728 l 0.45239,-1.55619 -1.15934,-4.74412 c -2.65258,-10.8545 -0.92662,-20.69462 4.98903,-28.44367 l 1.13168,-1.4824 -1.33074,0.77322 c -9.746,5.6629 -16.61119,12.96335 -18.33883,19.50154 -1.90462,7.20798 0.006,15.46719 3.57763,15.46719 0.88073,0 0.87293,0.48873 -0.0114,0.71067 -2.3231,0.58306 -5.66172,-2.15478 -6.6909,-5.48687 -3.65002,-11.81737 7.6127,-27.36206 25.54637,-35.25884 1.39734,-0.61529 2.67217,-1.20883 2.8329698,-1.31898 0.16079,-0.11015 1.04599,-0.69398 1.96711,-1.29741 1.19104,-0.78025 1.70077,-1.29375 1.76479,-1.77781 0.064,-0.48372 0.32812,-0.75014 0.91289,-0.92077 1.98665,-0.57969 5.63662002,-3.33248 6.461,-4.87285 0.42561,-0.79525 -0.46169998,-4.71515 -1.58973998,-7.02309 -1.17768002,-2.40948 -1.31420002,-4.58826 -0.36771,-5.86845 0.51985,-0.70314 0.57073,-1.1476 0.57073,-4.98564 0,-5.05586 0.33041,-6.35837 1.94130998,-7.65293 l 1.05957,-0.85149 -0.77806,-0.9892 c -2.65444998,-3.37479 -4.24539,-7.44917 -4.2465,-10.87522 -0.001,-3.03098 -0.0805,-2.84387 2.73476002,-6.43398 C 11.384397,98.316706 18.727897,86.832188 22.492607,77.82252 c 1.46824,-3.513781 7.04444,-20.393396 7.65659,-23.177143 0.0995,-0.452572 0.24071,-1.024957 0.31374,-1.271965 0.11404,-0.385665 -0.12213,-0.356571 -1.67183,0.20594 -2.42181,0.879069 -5.32094,1.592099 -5.54842,1.364615 -0.10147,-0.101472 0.55098,-0.851915 1.44988,-1.667652 l 1.63438,-1.483156 -1.37142,0.505854 c -1.16887,0.431145 -6.38886,1.660649 -7.05044,1.660649 -0.61513,0 -0.0495,-0.611569 1.35902,-1.469282 2.30092,-1.401189 3.63368,-2.63268 5.44889,-5.034857 0.88768,-1.174725 2.39296,-3.105433 3.34507,-4.290465 0.95211,-1.185035 1.6824,-2.203321 1.62286,-2.262858 -0.0595,-0.05954 -4.23283,0.003 -9.27397,0.13908 -8.98736,0.242518 -14.5142802,0.148523 -14.5142802,-0.246841 0,-0.109478 2.31428,-1.157488 5.1428502,-2.328916 2.82858,-1.171425 6.34967,-2.733318 7.82465,-3.470869 1.47499,-0.737554 3.75842,-1.784895 5.07429,-2.327427 1.31587,-0.542534 2.49072,-1.045029 2.61077,-1.116661 0.12005,-0.07163 -0.39878,-0.582314 -1.15296,-1.134854 -5.55835,-4.072257 -13.14422,-11.532826 -10.79103,-10.612787 1.54454,0.603879 12.2762,2.614286 13.95106,2.613515 0.66098,-2.74e-4 0.33863,-0.278208 -1.95106,-1.68206 -3.7929,-2.325495 -9.46514,-6.907914 -9.68868,-7.827172 -0.10967,-0.450987 -0.13315,-0.451682 1.34267,0.03975 2.11981,0.705866 7.40839,1.520415 10.81458,1.665666 1.81029,0.0772 3.8607,0.190602 4.55648,0.252012 l 1.26506,0.111657 -1.19648,-2.325241 c -0.65943,-1.28153 -1.19649,-2.7090995 -1.19649,-3.1804215 0,-0.575246 -0.52454,-1.6714309 -1.60244,-3.348787 -2.44005,-3.7970283 -5.11546,-11.089992 -4.34938,-11.8560709 0.0965,-0.096543 1.20794,0.8017273 2.46977,1.9961557 1.26183,1.1944285 3.82664,3.3384568 5.69957,4.7645075 1.87294,1.4260509 4.17305,3.24284 5.11137,4.0373094 1.84621,1.5631883 2.17136,1.7345403 1.73139,0.9124451 -0.53301,-0.9959355 -1.94395,-5.0300001 -1.80713,-5.1668212 0.075,-0.074949 1.16528,0.8372058 2.42295,2.0270115 5.22706,4.9450113 5.92415,5.2494967 4.46511,1.9503387 -0.8864,-2.0043129 -1.83444,-4.916682 -1.65794,-5.093184 0.0773,-0.07734 0.50939,0.132023 0.9601,0.4652519 1.01178,0.7480422 1.01147,0.6780694 -0.009,-1.9443489 -1.30533,-3.3557415 -2.28525,-10.6319173 -1.43185,-10.6319173 0.11475,0 0.81293,1.018285 1.55151,2.262857 0.73859,1.2445711 2.67809,4.1953906 4.31001,6.5573763 1.63193,2.3619856 3.402,5.0157 3.93351,5.8971429 l 0.96637,1.6026235 8.2e-4,-1.4418054 c 0.002,-4.1151358 1.9763,-12.1353376 2.98734,-12.1353376 0.1264,0 0.30949,1.3268571 0.40687,2.9485714 0.14603,2.4317681 0.38094,3.5652404 1.34029,6.466915 l 1.16323,3.5183438 0.35119,-1.5983438 c 1.11208,-5.061371 1.50448,-5.4807292 1.94473,-2.0783435 0.60992,4.7136612 3.67047,16.0260134 5.49838,20.3229954 0.92052,2.163933 1.80652,4.461989 1.96888,5.106788 l 0.2952,1.172363 1.66537,-0.518318 c 7.07412,-2.201713 16.72584,-1.188032 25.03053,2.628859 4.196403,1.928689 5.101023,2.46968 6.931443,4.145222 8.28466,7.583644 11.47616,21.966611 6.7226,30.296377 -0.3874,0.678858 -1.31607,2.345143 -2.0637,3.702858 -0.74763,1.357714 -1.90244,3.231261 -2.56626,4.163435 -0.66381,0.932176 -1.20693,1.931363 -1.20693,2.220417 0,0.853577 -1.35314,7.815442 -2.16951,11.162084 l -0.75543,3.096837 1.3939,-0.870213 c 1.4608,-0.911983 2.9151,-1.611349 3.05657,-1.469886 0.41466,0.414657 1.56956,8.280683 1.91517,13.04414 l 0.18478,2.546821 1.11748,0.57009 c 1.7456,0.89054 4.52538,1.87913 5.28384,1.87913 3.39748,0 9.17167,7.22621 9.17351,11.48033 8.2e-4,1.8116 5.06584,11.0111 6.06249,11.0111 0.2955,0 0.58305,0.15429 0.639,0.34286 0.0559,0.18857 0.24491,0.89829 0.4199,1.57714 0.27105,1.05149 0.47482,1.30095 1.37592,1.68439 0.69124,0.29414 1.31674,0.86437 1.80522,1.64571 0.41111,0.65759 1.33251,1.93619 2.04756,2.84133 1.52633,1.93212 5.64324,8.32846 7.50294,11.65714 0.92534,1.65627 1.8244,2.80418 3.10457,3.9639 2.6798,2.42766 3.27147,5.61336 2.11162,11.36956 l -0.43903,2.17888 0.83416,1.21242 c 0.83297,1.21068 4.15819,7.94767 4.15819,8.42462 0,0.13856 -0.1743,0.35064 -0.38732,0.47128 -0.21303,0.12064 -0.58774,0.99479 -0.83268,1.94256 -0.58139,2.24956 -2.26962,6.12113 -3.52478,8.08326 -0.5482,0.85697 -1.32371,2.21023 -1.72337,3.00725 -0.93095,1.8566 -2.60704,4.35412 -4.13544,6.16219 -0.66095,0.78191 -1.35353,1.77217 -1.53907,2.20059 -0.18553,0.42843 -0.69988,1.22926 -1.14298,1.77962 -0.66152,0.82166 -0.96309,1.73422 -1.68574,5.10103 -0.48404,2.25519 -1.15539,4.70263 -1.49189,5.43874 -0.33649,0.73612 -0.87992,2.20239 -1.20763,3.25839 -0.55157,1.77739 -0.68277,1.96222 -1.76637,2.48846 -1.00833,0.48968 -1.11239,0.61672 -0.75092,0.91671 1.22707,1.01838 6.97697,9.12559 8.54522,12.04855 1.01383,1.88959 1.53528,2.27457 3.91787,2.89254 2.28217,0.59191 2.43531,0.86723 0.73532,1.32191 l -1.22979,0.32891 0.59995,0.63861 c 0.9334,0.99356 8.03786,2.4398 15.91677,3.24015 2.25939,0.22951 2.28286,0.36635 0.24875,1.45052 -2.06389,1.10004 -4.5683,1.68164 -7.26323,1.68673 l -2.14591,0.004 2.61526,2.81143 c 1.43839,1.54628 3.64603,4.16914 4.90586,5.82857 l 2.29062,3.01714 2.86289,0.9838 c 1.57459,0.54108 3.60347,1.12574 4.50861,1.29923 7.34288,1.40744 19.32787,12.92672 24.96949,23.99919 0.8593,1.6865 1.98012,3.70442 2.49072,4.48427 1.39324,2.12794 1.1414,2.2769 -1.32991,0.78671 l -1.57256,-0.94826 1.7097,2.32265 c 0.94034,1.27749 2.32685,3.17779 3.08113,4.22296 0.75429,1.04514 2.88297,3.85212 4.73041,6.23772 3.56806,4.60745 4.90965,6.85235 5.98561,10.01582 0.67076,1.97206 0.91869,4.79536 0.39255,4.4702 -0.15085,-0.0932 -0.27428,-0.3425 -0.27428,-0.55392 0,-1.81196 -4.31484,-7.5975 -7.79732,-10.45503 -2.97507,-2.44117 -3.00784,-2.44696 -2.00309,-0.35353 0.81756,1.70342 0.81142,2.26722 -0.0185,1.69607 -0.25676,-0.17669 -2.3327,-1.44762 -4.61318,-2.82423 -2.80216,-1.69155 -4.76666,-3.10393 -6.05984,-4.35673 l -1.91351,-1.85379 0.61931,1.95026 c 1.40991,4.4398 1.37005,9.81076 -0.0464,6.25947 -3.00679,-7.53825 -10.49451,-15.39223 -12.73843,-13.3615 -0.68253,0.61769 -0.7341,3.2095 -0.11004,5.53097 1.03069,3.83416 0.93353,13.15996 -0.16777,16.10345 -0.70661,1.8886 -2.18789,3.58294 -3.88354,4.4422 -1.75972,0.89173 -1.78993,0.82381 -0.64018,-1.43934 1.12566,-2.21577 1.5233,-4.03296 1.51526,-6.92465 l -0.006,-2.08827 -0.84635,1.64571 c -1.01514,1.97395 -3.73354,5.42504 -4.09653,5.20071 -0.16146,-0.0998 -0.1606,-0.34251 0.002,-0.64685 0.6295,-1.17622 1.44909,-6.31557 1.46982,-9.21672 0.0272,-3.8067 -0.38207,-4.81837 -0.87251,-2.15668 -0.6678,3.62428 -3.3251,7.68845 -3.3251,5.08553 0,-1.97718 -1.14629,-4.00037 -1.49019,-2.63015 -0.30532,1.21649 -2.59902,3.18322 -5.39901,4.62942 -2.23925,1.15656 -2.72826,1.53296 -3.23678,2.49153 -1.67257,3.15283 -2.96631,3.88737 -3.09397,1.75667 l -0.0829,-1.38369 -1.32289,2.48121 c -1.94481,3.64765 -1.73403,3.73588 2.28289,0.95561 4.65774,-3.22381 7.68818,-4.65218 7.67595,-3.61802 -0.0185,1.56763 -2.80233,9.75465 -6.32804,18.61051 -2.13481,5.3622 -3.85408,8.27709 -7.0464,11.94662 -1.07041,1.23045 -2.25542,2.84736 -2.63334,3.59317 l -0.68715,1.35599 0.63919,-0.12217 c 3.2695,-0.62501 4.07794,7.63359 0.89992,9.19313 l -0.71053,0.34867 0.52626,1.89907 c 0.71217,2.56995 1.57488,4.45407 3.83421,8.37372 1.05046,1.82244 1.91088,3.43225 1.91204,3.5774 0.001,0.14513 0.49488,0.54528 1.09715,0.88924 1.18022,0.67397 1.35776,1.23544 0.64109,2.02735 -0.24967,0.27588 -0.33411,0.50159 -0.18765,0.50159 0.57047,0 2.24162,3.85988 3.83817,8.86511 0.52616,1.64952 0.3832,1.79465 -1.0728,1.0891 -0.64008,-0.31019 -1.50095,-0.64199 -1.91304,-0.73733 -0.41209,-0.0954 -1.16895,-0.54188 -1.68192,-0.99226 -0.51297,-0.4504 -1.1851,-0.81891 -1.49363,-0.81891 -1.39118,0 -3.60769,-4.57591 -3.25859,-6.72718 0.10876,-0.67022 0.004,-1.11467 -0.37873,-1.60073 -0.64571,-0.82089 -0.67236,-1.48224 -0.0858,-2.13033 0.41007,-0.45312 0.40002,-0.55798 -0.13343,-1.39301 -0.71058,-1.11234 -3.08294,-5.8156 -3.49923,-6.93732 -0.2512,-0.67685 -0.28262,-0.39941 -0.1771,1.5639 0.0989,1.83969 0.0273,2.58909 -0.31205,3.2694 -0.24218,0.48546 -0.62462,2.31198 -0.84986,4.05896 -0.22525,1.74698 -0.47778,3.50142 -0.56118,3.89878 -0.0834,0.39736 0.0316,1.75507 0.25562,3.01714 0.67777,3.81888 0.77974,4.90039 0.46201,4.90039 -1.66054,0 -2.03895,7.64838 -0.87799,17.74585 0.97988,8.52255 1.04493,8.69486 6.11997,16.211 0.90217,1.3361 1.29814,2.17278 1.18982,2.51405 -0.0893,0.28133 -0.0415,0.58623 0.10628,0.67754 0.14775,0.0913 0.65554,0.84227 1.12843,1.66878 0.66998,1.17101 1.00658,1.50278 1.5246,1.50278 0.47714,0 0.7618,0.22991 1.00844,0.8145 0.4923,1.16681 4.80647,4.54691 6.1173,4.79284 1.10483,0.20725 5.46146,2.29143 6.84037,3.27236 0.45085,0.32075 1.56171,0.96275 2.46857,1.4267 1.75949,0.90015 2.93937,2.20334 4.69957,5.19075 0.53331,0.90514 1.16706,1.96819 1.40833,2.36236 0.6472,1.05729 0.13119,2.03375 -2.50837,4.7466 -2.74689,2.8232 -3.05823,2.9814 -7.30064,3.70969 -8.49101,1.45766 -13.45644,0.64051 -24.82148,-4.08486 -1.35772,-0.5645 -3.31932,-1.37535 -4.35913,-1.80186 -1.0398,-0.42652 -2.2645,-1.14103 -2.72155,-1.58781 -2.29408,-2.24254 -6.09869,-4.17044 -9.27335,-4.69907 -2.22886,-0.37113 -6.03629,-3.6935 -6.55558,-5.72039 -0.1625,-0.63429 -0.4863,-1.64695 -0.71955,-2.25038 -0.23325,-0.60343 -0.45421,-2.06093 -0.49102,-3.23887 -0.063,-2.01567 -0.11793,-2.18834 -0.93338,-2.9331 -0.47654,-0.43527 -0.86644,-0.90682 -0.86644,-1.04791 0,-0.43565 1.88611,-3.41513 2.71704,-4.29211 0.98806,-1.04281 1.67153,-2.38099 1.67153,-3.27278 0,-0.37747 0.48802,-1.61293 1.08449,-2.74549 1.41208,-2.68119 1.92004,-5.38444 2.09188,-11.13259 l 0.13531,-4.52572 -1.09229,-4.38857 c -1.29354,-5.19714 -2.99841,-9.64298 -5.99537,-15.63429 -7.0485,-14.09085 -8.2677,-17.46251 -8.28716,-22.91764 l -0.005,-1.52338 -4.35418,4.26624 c -4.862943,4.7647 -5.513973,5.61814 -7.248783,9.50252 -2.67048,5.9794 -2.74914,6.01777 -2.61887,1.27798 l 0.0961,-3.49715 -1.62903,2.19429 c -3.49409,4.7065 -9.15952,9.58445 -13.86812,11.94048 -3.28436,1.64341 -7.95428,2.94462 -7.95428,2.21637 0,-0.16798 0.16673,-0.30542 0.37052,-0.30542 0.7954,0 6.04094,-4.3606 7.57397,-6.2962 l 0.83333,-1.05216 -2.40034,1.19372 c -5.45556,2.71309 -5.80009,2.71082 -2.92423,-0.0192 1.44472,-1.37151 1.84886,-1.86904 1.20961,-1.4891 -0.528,0.31381 -2.3731,1.39496 -4.10023,2.40252 -4.78089,2.7891 -8.54855,6.83084 -11.13011,11.93985 -1.67745,3.31971 -1.47436,6.2612 0.7116,10.30654 1.47982,2.73852 0.89963,2.63893 -2.17952,-0.37419 -2.69265,-2.63489 -3.85026,-4.38706 -5.14304,-7.78444 l -0.90622,-2.38152 -0.0434,1.57715 c -0.0643,2.3374 -0.19937,2.72332 -0.72229,2.06378 -2.35089,-2.96525 -1.38564,-15.75572 1.64091,-21.74378 l 0.55453,-1.09715 -1.23316,1.37143 c -0.67824,0.75429 -2.25675,2.60572 -3.5078,4.11429 -1.25105,1.50857 -2.31792,2.79428 -2.37082,2.85715 -0.81202,0.96485 0.24933,-3.68788 1.4185,-6.21839 0.53133,-1.15002 0.91289,-2.03676 0.8479,-1.97058 -0.75829,0.77245 -2.91115,3.69974 -2.91115,3.95836 0,0.18671 -0.27771,0.69254 -0.61714,1.12405 -0.49121,0.62449 -0.59984,1.06582 -0.53235,2.16271 0.11235,1.82582 -0.90582,6.9571 -1.55244,7.82384 -1.04223,1.39705 -1.7562,0.94804 -3.76797,-2.36969 -0.25136,-0.4145 -0.71143,0.33342 -2.91435,4.73785 l -2.61587,5.23005 -1.95636,7.9626 c -1.92743,7.84492 -2.32915,10.03084 -3.18907,17.35348 -0.3491,2.97273 -0.38043,4.37891 -0.15887,7.13142 0.15179,1.88572 0.354,4.50989 0.44935,5.83148 l 0.17337,2.40291 -1.40017,1.53202 c -3.07271,3.36203 -3.32862,4.72444 -3.03425,16.1536 0.14421,5.59877 -0.75393,6.86548 -7.01878,9.89916 l -3.63041,1.75798 -3.9344902,-0.0208 c -3.01875,-0.0162 -4.34723,-0.14263 -5.70784,-0.54366 z M 144.68134,343.05682 c 0,-0.45257 -0.0477,-0.82286 -0.10601,-0.82286 -0.0583,0 -0.16036,0.37029 -0.22679,0.82286 -0.0664,0.45257 -0.0187,0.82286 0.10601,0.82286 0.12474,0 0.22679,-0.37029 0.22679,-0.82286 z M -15.290283,186.85111 c 0.29361,-0.75429 0.61243,-2.23543 0.70851,-3.29143 0.0961,-1.056 0.46455,-3 0.81885,-4.32 0.35429,-1.32 0.61365,-2.4 0.57634,-2.4 -0.30416,0 -2.94834,4.6577 -3.39224,5.97539 -0.68162,2.02335 -0.99105,5.59901 -0.70725,8.17263 l 0.20927,1.89769 0.62635,-2.33143 c 0.34448,-1.28228 0.86656,-2.94857 1.16017,-3.70285 z m 73.54254,2.95458 c 0.18702,-1.01498 0.47382,-2.00662 0.63733,-2.20364 0.20798,-0.2506 0.21191,-0.54081 0.0131,-0.96601 -0.15631,-0.33428 -0.28934,-0.86784 -0.29562,-1.18567 -0.0231,-1.16764 -2.80509,-6.95098 -3.97082,-8.25466 -0.32247,-0.36064 -0.48188,-0.82644 -0.39565,-1.15616 0.11375,-0.435 -0.12614,-0.70794 -1.13028,-1.28596 -0.70108,-0.40357 -1.86097,-1.14823 -2.57754,-1.65481 -0.71657,-0.50657 -1.30286,-0.88462 -1.30286,-0.84009 0,0.18408 2.19201,6.50274 2.85143,8.21952 0.39203,1.02063 1.01389,2.33269 1.38192,2.91569 0.36804,0.583 0.9998,1.84622 1.40392,2.80717 1.0968,2.60804 2.56818,5.45004 2.82163,5.45004 0.12288,0 0.37644,-0.83044 0.56346,-1.84542 z m -7.92521,-19.0003 c 0.37715,-0.12078 0.54881,-0.23191 0.38148,-0.24694 -0.16734,-0.015 -0.87705,-0.53155 -1.57715,-1.1478 -0.70009,-0.61625 -1.2729,-1.07023 -1.2729,-1.00886 0,0.0614 0.19675,0.68901 0.43721,1.39474 0.45395,1.33227 0.67646,1.44278 2.03136,1.00886 z m 5.64113,-101.0005 c 1.17086,-3.78965 1.22794,-3.856348 2.36672,-2.76533 l 0.7693,0.737031 v -1.375456 c 0,-0.855936 -0.27249,-2.040817 -0.72141,-3.13703 -0.39678,-0.968868 -0.93225,-2.500934 -1.18994,-3.404596 l -0.46852,-1.643021 -0.61197,1.635662 c -1.70561,4.558626 -2.64742,10.905828 -1.93744,13.057072 0.43664,1.323026 0.41242,1.364939 1.79326,-3.104332 z"
       id="path171" />
  </g>
</svg>
